<svg width="2729" height="1806" xmlns="http://www.w3.org/2000/svg" xmlns:xlink="http://www.w3.org/1999/xlink" xml:space="preserve" overflow="hidden"><defs><clipPath id="clip0"><rect x="1808" y="1170" width="2729" height="1806"/></clipPath><clipPath id="clip1"><rect x="1808" y="1170" width="2729" height="1805"/></clipPath><clipPath id="clip2"><rect x="2119" y="1359" width="2371" height="1118"/></clipPath><clipPath id="clip3"><rect x="2119" y="1359" width="2371" height="1118"/></clipPath><clipPath id="clip4"><rect x="2119" y="1359" width="2371" height="1118"/></clipPath><clipPath id="clip5"><rect x="2119" y="1359" width="2371" height="1118"/></clipPath><clipPath id="clip6"><rect x="2119" y="1359" width="2371" height="1118"/></clipPath><clipPath id="clip7"><rect x="2119" y="1359" width="2371" height="1118"/></clipPath><clipPath id="clip8"><rect x="2119" y="1359" width="2371" height="1118"/></clipPath><clipPath id="clip9"><rect x="1808" y="1170" width="2729" height="1805"/></clipPath><clipPath id="clip10"><rect x="1808" y="1170" width="2729" height="1805"/></clipPath><clipPath id="clip11"><rect x="1808" y="1170" width="2729" height="1805"/></clipPath><clipPath id="clip12"><rect x="1808" y="1170" width="2729" height="1805"/></clipPath><clipPath id="clip13"><rect x="1808" y="1170" width="2729" height="1805"/></clipPath><clipPath id="clip14"><rect x="1808" y="1170" width="2729" height="1805"/></clipPath><clipPath id="clip15"><rect x="1808" y="1170" width="2729" height="1805"/></clipPath><clipPath id="clip16"><rect x="1808" y="1170" width="2729" height="1805"/></clipPath><clipPath id="clip17"><rect x="1808" y="1170" width="2729" height="1805"/></clipPath><clipPath id="clip18"><rect x="1808" y="1170" width="2729" height="1805"/></clipPath><clipPath id="clip19"><rect x="1808" y="1170" width="2729" height="1805"/></clipPath><clipPath id="clip20"><rect x="1808" y="1170" width="2729" height="1805"/></clipPath><clipPath id="clip21"><rect x="1808" y="1170" width="2729" height="1805"/></clipPath><clipPath id="clip22"><rect x="1808" y="1170" width="2729" height="1805"/></clipPath><clipPath id="clip23"><rect x="1808" y="1170" width="2729" height="1805"/></clipPath><clipPath id="clip24"><rect x="1808" y="1170" width="2729" height="1805"/></clipPath><clipPath id="clip25"><rect x="1808" y="1170" width="2729" height="1805"/></clipPath><clipPath id="clip26"><rect x="1808" y="1170" width="2729" height="1805"/></clipPath><clipPath id="clip27"><rect x="1808" y="1170" width="2729" height="1805"/></clipPath><clipPath id="clip28"><rect x="1808" y="1170" width="2729" height="1805"/></clipPath><clipPath id="clip29"><rect x="1808" y="1170" width="2729" height="1805"/></clipPath><clipPath id="clip30"><rect x="1808" y="1170" width="2729" height="1805"/></clipPath><clipPath id="clip31"><rect x="1808" y="1170" width="2729" height="1805"/></clipPath><clipPath id="clip32"><rect x="1808" y="1170" width="2729" height="1805"/></clipPath><clipPath id="clip33"><rect x="1808" y="1170" width="2729" height="1805"/></clipPath><clipPath id="clip34"><rect x="1808" y="1170" width="2729" height="1805"/></clipPath><clipPath id="clip35"><rect x="1808" y="1170" width="2729" height="1805"/></clipPath><clipPath id="clip36"><rect x="1808" y="1170" width="2729" height="1805"/></clipPath><clipPath id="clip37"><rect x="1808" y="1170" width="2729" height="1805"/></clipPath><clipPath id="clip38"><rect x="1808" y="1170" width="2729" height="1805"/></clipPath><clipPath id="clip39"><rect x="1808" y="1170" width="2729" height="1805"/></clipPath><clipPath id="clip40"><rect x="1808" y="1170" width="2729" height="1805"/></clipPath><clipPath id="clip41"><rect x="1808" y="1170" width="2729" height="1805"/></clipPath><clipPath id="clip42"><rect x="1808" y="1170" width="2729" height="1805"/></clipPath></defs><g clip-path="url(#clip0)" transform="translate(-1808 -1170)"><rect x="1808" y="1170" width="2729" height="1806" fill="#FFFFFF"/><g clip-path="url(#clip1)"><path d="M2119.5 2287.58 4487.5 2287.58M2119.5 2102.57 4487.5 2102.57M2119.5 1916.56 4487.5 1916.56M2119.5 1730.56 4487.5 1730.56M2119.5 1545.55 4487.5 1545.55M2119.5 1359.5 4487.5 1359.5" stroke="#D9D9D9" stroke-width="3.4375" stroke-linejoin="round" stroke-miterlimit="10" fill="none"/></g><g clip-path="url(#clip2)"><path d="M2144.07 2096.07 2166.07 2096.07 2166.07 2474 2144.07 2474ZM2381.08 2076.07 2402.08 2076.07 2402.08 2474 2381.08 2474ZM2617.09 2086.07 2639.09 2086.07 2639.09 2474 2617.09 2474ZM2854.09 2085.07 2876.09 2085.07 2876.09 2474 2854.09 2474ZM3091.1 2095.07 3113.1 2095.07 3113.1 2474 3091.1 2474ZM3327.11 2099.07 3349.11 2099.07 3349.11 2474 3327.11 2474ZM3564.12 2099.07 3586.12 2099.07 3586.12 2474 3564.12 2474ZM3801.12 2085.07 3823.13 2085.07 3823.13 2474 3801.12 2474ZM4038.13 2088.07 4059.13 2088.07 4059.13 2474 4038.13 2474Z" fill="#C00000"/></g><g clip-path="url(#clip3)"><path d="M2172.07 1797.06 2194.07 1797.06 2194.07 2474 2172.07 2474ZM2408.08 1755.06 2430.08 1755.06 2430.08 2474 2408.08 2474ZM2645.09 1695.06 2667.09 1695.06 2667.09 2474 2645.09 2474ZM2882.09 1693.06 2904.1 1693.06 2904.1 2474 2882.09 2474ZM3119.1 1746.06 3140.1 1746.06 3140.1 2474 3119.1 2474ZM3355.11 1765.06 3377.11 1765.06 3377.11 2474 3355.11 2474ZM3592.12 1768.06 3614.12 1768.06 3614.12 2474 3592.12 2474ZM3829.13 1772.06 3851.13 1772.06 3851.13 2474 3829.13 2474ZM4065.13 1777.06 4087.13 1777.06 4087.13 2474 4065.13 2474ZM4302.14 1781.06 4324.14 1781.06 4324.14 2474 4302.14 2474Z" fill="#FF0000"/></g><g clip-path="url(#clip4)"><path d="M2200.07 1921.06 2221.07 1921.06 2221.07 2474 2200.07 2474ZM2436.08 1900.06 2458.08 1900.06 2458.08 2474 2436.08 2474ZM2673.09 2109.07 2695.09 2109.07 2695.09 2474 2673.09 2474ZM2910.1 2109.07 2932.1 2109.07 2932.1 2474 2910.1 2474ZM3146.1 2124.07 3168.1 2124.07 3168.1 2474 3146.1 2474ZM3383.11 2124.07 3405.11 2124.07 3405.11 2474 3383.11 2474ZM3620.12 2124.07 3642.12 2124.07 3642.12 2474 3620.12 2474ZM3856.13 2133.07 3878.13 2133.07 3878.13 2474 3856.13 2474ZM4093.13 2134.07 4115.14 2134.07 4115.14 2474 4093.13 2474ZM4330.14 2134.07 4352.14 2134.07 4352.14 2474 4330.14 2474Z" fill="#FFC000"/></g><g clip-path="url(#clip5)"><path d="M2227.07 1715.06 2249.07 1715.06 2249.07 2474 2227.07 2474ZM2464.08 1646.05 2486.08 1646.05 2486.08 2474 2464.08 2474ZM2701.09 1628.05 2723.09 1628.05 2723.09 2474 2701.09 2474ZM2937.1 1628.05 2959.1 1628.05 2959.1 2474 2937.1 2474ZM3174.1 1781.06 3196.1 1781.06 3196.1 2474 3174.1 2474ZM3411.11 2001.07 3433.11 2001.07 3433.11 2474 3411.11 2474ZM3648.12 2001.07 3669.12 2001.07 3669.12 2474 3648.12 2474ZM3884.13 2006.07 3906.13 2006.07 3906.13 2474 3884.13 2474ZM4121.14 2007.07 4143.14 2007.07 4143.14 2474 4121.14 2474ZM4358.14 2007.07 4380.14 2007.07 4380.14 2474 4358.14 2474Z" fill="#92D050"/></g><g clip-path="url(#clip6)"><path d="M2255.07 1538.05 2277.07 1538.05 2277.07 2474 2255.07 2474ZM2492.08 1447.05 2514.08 1447.05 2514.08 2474 2492.08 2474ZM2729.09 1397.05 2750.09 1397.05 2750.09 2474 2729.09 2474ZM2965.1 1396.05 2987.1 1396.05 2987.1 2474 2965.1 2474ZM3202.1 1441.05 3224.11 1441.05 3224.11 2474 3202.1 2474ZM3439.11 1803.06 3461.11 1803.06 3461.11 2474 3439.11 2474ZM3675.12 1804.06 3697.12 1804.06 3697.12 2474 3675.12 2474ZM3912.13 1934.06 3934.13 1934.06 3934.13 2474 3912.13 2474ZM4149.14 1951.06 4171.14 1951.06 4171.14 2474 4149.14 2474ZM4385.14 1952.06 4407.14 1952.06 4407.14 2474 4385.14 2474Z" fill="#00B050"/></g><g clip-path="url(#clip7)"><path d="M2283.07 1552.05 2305.08 1552.05 2305.08 2474 2283.07 2474ZM2520.08 1453.05 2542.08 1453.05 2542.08 2474 2520.08 2474ZM2756.09 1408.05 2778.09 1408.05 2778.09 2474 2756.09 2474ZM2993.1 1404.05 3015.1 1404.05 3015.1 2474 2993.1 2474ZM3230.11 1444.05 3252.11 1444.05 3252.11 2474 3230.11 2474ZM3466.11 1803.06 3488.11 1803.06 3488.11 2474 3466.11 2474ZM3703.12 1804.06 3725.12 1804.06 3725.12 2474 3703.12 2474ZM3940.13 1934.06 3962.13 1934.06 3962.13 2474 3940.13 2474ZM4177.14 1954.06 4198.14 1954.06 4198.14 2474 4177.14 2474ZM4413.14 1956.06 4435.15 1956.06 4435.15 2474 4413.14 2474Z" fill="#0070C0"/></g><g clip-path="url(#clip8)"><path d="M2311.08 1533.05 2333.08 1533.05 2333.08 2474 2311.08 2474ZM2547.08 1431.05 2569.08 1431.05 2569.08 2474 2547.08 2474ZM2784.09 1391.05 2806.09 1391.05 2806.09 2474 2784.09 2474ZM3021.1 1391.05 3043.1 1391.05 3043.1 2474 3021.1 2474ZM3258.11 1469.05 3279.11 1469.05 3279.11 2474 3258.11 2474ZM3494.11 1783.06 3516.12 1783.06 3516.12 2474 3494.11 2474ZM3731.12 1784.06 3753.12 1784.06 3753.12 2474 3731.12 2474ZM3968.13 1924.06 3990.13 1924.06 3990.13 2474 3968.13 2474ZM4204.14 1957.06 4226.14 1957.06 4226.14 2474 4204.14 2474ZM4441.15 1958.06 4463.15 1958.06 4463.15 2474 4441.15 2474Z" fill="#7030A0"/></g><g clip-path="url(#clip9)"><path d="M2119.5 2473.5 4487.5 2473.5" stroke="#D9D9D9" stroke-width="3.4375" stroke-linejoin="round" stroke-miterlimit="10" fill="none" fill-rule="evenodd"/></g><g clip-path="url(#clip10)"><text fill="#595959" font-family="Calibri,Calibri_MSFontService,sans-serif" font-weight="400" font-size="55" transform="matrix(1 0 0 1 2041.1 2489)">0</text></g><g clip-path="url(#clip11)"><text fill="#595959" font-family="Calibri,Calibri_MSFontService,sans-serif" font-weight="400" font-size="55" transform="matrix(1 0 0 1 1985.36 2303)">200</text></g><g clip-path="url(#clip12)"><text fill="#595959" font-family="Calibri,Calibri_MSFontService,sans-serif" font-weight="400" font-size="55" transform="matrix(1 0 0 1 1985.36 2118)">400</text></g><g clip-path="url(#clip13)"><text fill="#595959" font-family="Calibri,Calibri_MSFontService,sans-serif" font-weight="400" font-size="55" transform="matrix(1 0 0 1 1985.36 1932)">600</text></g><g clip-path="url(#clip14)"><text fill="#595959" font-family="Calibri,Calibri_MSFontService,sans-serif" font-weight="400" font-size="55" transform="matrix(1 0 0 1 1985.36 1746)">800</text></g><g clip-path="url(#clip15)"><text fill="#595959" font-family="Calibri,Calibri_MSFontService,sans-serif" font-weight="400" font-size="55" transform="matrix(1 0 0 1 1957.5 1561)">1000</text></g><g clip-path="url(#clip16)"><text fill="#595959" font-family="Calibri,Calibri_MSFontService,sans-serif" font-weight="400" font-size="55" transform="matrix(1 0 0 1 1957.5 1375)">1200</text></g><g clip-path="url(#clip17)"><text fill="#595959" font-family="Calibri,Calibri_MSFontService,sans-serif" font-weight="400" font-size="55" transform="matrix(0.707107 -0.707107 0.707107 0.707107 2040.36 2756)">256x256x256</text></g><g clip-path="url(#clip18)"><text fill="#595959" font-family="Calibri,Calibri_MSFontService,sans-serif" font-weight="400" font-size="55" transform="matrix(0.707107 -0.707107 0.707107 0.707107 2277.07 2756)">512x256x256</text></g><g clip-path="url(#clip19)"><text fill="#595959" font-family="Calibri,Calibri_MSFontService,sans-serif" font-weight="400" font-size="55" transform="matrix(0.707107 -0.707107 0.707107 0.707107 2513.78 2756)">512x512x256</text></g><g clip-path="url(#clip20)"><text fill="#595959" font-family="Calibri,Calibri_MSFontService,sans-serif" font-weight="400" font-size="55" transform="matrix(0.707107 -0.707107 0.707107 0.707107 2750.49 2756)">512x512x512</text></g><g clip-path="url(#clip21)"><text fill="#595959" font-family="Calibri,Calibri_MSFontService,sans-serif" font-weight="400" font-size="55" transform="matrix(0.707107 -0.707107 0.707107 0.707107 2987.2 2756)">768x512x512</text></g><g clip-path="url(#clip22)"><text fill="#595959" font-family="Calibri,Calibri_MSFontService,sans-serif" font-weight="400" font-size="55" transform="matrix(0.707107 -0.707107 0.707107 0.707107 3223.91 2756)">768x768x512</text></g><g clip-path="url(#clip23)"><text fill="#595959" font-family="Calibri,Calibri_MSFontService,sans-serif" font-weight="400" font-size="55" transform="matrix(0.707107 -0.707107 0.707107 0.707107 3460.61 2756)">768x768x768</text></g><g clip-path="url(#clip24)"><text fill="#595959" font-family="Calibri,Calibri_MSFontService,sans-serif" font-weight="400" font-size="55" transform="matrix(0.707107 -0.707107 0.707107 0.707107 3677.62 2776)">1024x768x768</text></g><g clip-path="url(#clip25)"><text fill="#595959" font-family="Calibri,Calibri_MSFontService,sans-serif" font-weight="400" font-size="55" transform="matrix(0.707107 -0.707107 0.707107 0.707107 3894.62 2796)">1024x1024x768</text></g><g clip-path="url(#clip26)"><text fill="#595959" font-family="Calibri,Calibri_MSFontService,sans-serif" font-weight="400" font-size="55" transform="matrix(0.707107 -0.707107 0.707107 0.707107 4111.63 2815)">1024x1024x1024</text></g><g clip-path="url(#clip27)"><text fill="#595959" font-family="Calibri,Calibri_MSFontService,sans-serif" font-weight="400" font-size="64" transform="matrix(6.12323e-17 -1 1 6.12323e-17 1926.42 2381)">Effective memory bandwidth (GB/s)</text></g><g clip-path="url(#clip28)"><text fill="#595959" font-family="Calibri,Calibri_MSFontService,sans-serif" font-weight="400" font-size="64" transform="matrix(1 0 0 1 2989.04 2901)">Problem size (nx*ny*nz)</text></g><g clip-path="url(#clip29)"><rect x="2048" y="1264" width="35" height="35.0001" fill="#C00000"/></g><g clip-path="url(#clip30)"><text fill="#595959" font-family="Calibri,Calibri_MSFontService,sans-serif" font-weight="400" font-size="64" transform="matrix(1 0 0 1 2098.84 1300)">RX 6900 XT</text></g><g clip-path="url(#clip31)"><rect x="2430" y="1264" width="35" height="35.0001" fill="#FF0000"/></g><g clip-path="url(#clip32)"><text fill="#595959" font-family="Calibri,Calibri_MSFontService,sans-serif" font-weight="400" font-size="64" transform="matrix(1 0 0 1 2481.27 1300)">RX 7900 XTX</text></g><g clip-path="url(#clip33)"><rect x="2846" y="1264" width="35" height="35.0001" fill="#FFC000"/></g><g clip-path="url(#clip34)"><text fill="#595959" font-family="Calibri,Calibri_MSFontService,sans-serif" font-weight="400" font-size="64" transform="matrix(1 0 0 1 2897.01 1300)">MI50</text></g><g clip-path="url(#clip35)"><rect x="3073" y="1264" width="34.9998" height="35.0001" fill="#92D050"/></g><g clip-path="url(#clip36)"><text fill="#595959" font-family="Calibri,Calibri_MSFontService,sans-serif" font-weight="400" font-size="64" transform="matrix(1 0 0 1 3123.73 1300)">MI100</text></g><g clip-path="url(#clip37)"><rect x="3332" y="1264" width="35" height="35.0001" fill="#00B050"/></g><g clip-path="url(#clip38)"><text fill="#595959" font-family="Calibri,Calibri_MSFontService,sans-serif" font-weight="400" font-size="64" transform="matrix(1 0 0 1 3382.96 1300)">MI210</text></g><g clip-path="url(#clip39)"><rect x="3591" y="1264" width="34.9998" height="35.0001" fill="#0070C0"/></g><g clip-path="url(#clip40)"><text fill="#595959" font-family="Calibri,Calibri_MSFontService,sans-serif" font-weight="400" font-size="64" transform="matrix(1 0 0 1 3642.2 1300)">MI250 (1GCD)</text></g><g clip-path="url(#clip41)"><rect x="4050" y="1264" width="36" height="35.0001" fill="#7030A0"/></g><g clip-path="url(#clip42)"><text fill="#595959" font-family="Calibri,Calibri_MSFontService,sans-serif" font-weight="400" font-size="64" transform="matrix(1 0 0 1 4101.54 1300)">MI250X (1GCD)</text></g></g></svg>