<svg width="2224" height="1262" xmlns="http://www.w3.org/2000/svg" xmlns:xlink="http://www.w3.org/1999/xlink" xml:space="preserve" overflow="hidden"><defs><clipPath id="clip0"><rect x="1716" y="5800" width="2224" height="1262"/></clipPath><clipPath id="clip1"><rect x="1716" y="5799" width="2224" height="1263"/></clipPath><clipPath id="clip2"><rect x="1716" y="5799" width="2224" height="1263"/></clipPath><clipPath id="clip3"><rect x="1716" y="5799" width="2224" height="1263"/></clipPath><clipPath id="clip4"><rect x="1716" y="5799" width="2224" height="1263"/></clipPath><clipPath id="clip5"><rect x="1716" y="5799" width="2224" height="1263"/></clipPath><clipPath id="clip6"><rect x="1716" y="5799" width="2224" height="1263"/></clipPath><clipPath id="clip7"><rect x="1716" y="5799" width="2224" height="1263"/></clipPath><clipPath id="clip8"><rect x="1716" y="5799" width="2224" height="1263"/></clipPath><clipPath id="clip9"><rect x="1716" y="5799" width="2224" height="1263"/></clipPath><clipPath id="clip10"><rect x="1716" y="5799" width="2224" height="1263"/></clipPath><clipPath id="clip11"><rect x="1716" y="5799" width="2224" height="1263"/></clipPath><clipPath id="clip12"><rect x="1716" y="5799" width="2224" height="1263"/></clipPath><clipPath id="clip13"><rect x="1716" y="5799" width="2224" height="1263"/></clipPath><clipPath id="clip14"><rect x="1716" y="5799" width="2224" height="1263"/></clipPath><clipPath id="clip15"><rect x="1716" y="5799" width="2224" height="1263"/></clipPath><clipPath id="clip16"><rect x="1716" y="5799" width="2224" height="1263"/></clipPath><clipPath id="clip17"><rect x="1716" y="5799" width="2224" height="1263"/></clipPath><clipPath id="clip18"><rect x="1716" y="5799" width="2224" height="1263"/></clipPath><clipPath id="clip19"><rect x="1716" y="5799" width="2224" height="1263"/></clipPath><clipPath id="clip20"><rect x="1716" y="5799" width="2224" height="1263"/></clipPath><clipPath id="clip21"><rect x="1716" y="5799" width="2224" height="1263"/></clipPath><clipPath id="clip22"><rect x="1716" y="5799" width="2224" height="1263"/></clipPath><clipPath id="clip23"><rect x="1716" y="5799" width="2224" height="1263"/></clipPath><clipPath id="clip24"><rect x="1716" y="5799" width="2224" height="1263"/></clipPath><clipPath id="clip25"><rect x="1716" y="5799" width="2224" height="1263"/></clipPath><clipPath id="clip26"><rect x="1716" y="5799" width="2224" height="1263"/></clipPath><clipPath id="clip27"><rect x="1716" y="5799" width="2224" height="1263"/></clipPath><clipPath id="clip28"><rect x="1716" y="5799" width="2224" height="1263"/></clipPath><clipPath id="clip29"><rect x="1716" y="5799" width="2224" height="1263"/></clipPath><clipPath id="clip30"><rect x="1716" y="5799" width="2224" height="1263"/></clipPath><clipPath id="clip31"><rect x="1716" y="5799" width="2224" height="1263"/></clipPath><clipPath id="clip32"><rect x="1716" y="5799" width="2224" height="1263"/></clipPath><clipPath id="clip33"><rect x="1716" y="5799" width="2224" height="1263"/></clipPath><clipPath id="clip34"><rect x="1716" y="5799" width="2224" height="1263"/></clipPath><clipPath id="clip35"><rect x="1716" y="5799" width="2224" height="1263"/></clipPath><clipPath id="clip36"><rect x="1716" y="5799" width="2224" height="1263"/></clipPath></defs><g clip-path="url(#clip0)" transform="translate(-1716 -5800)"><rect x="1716" y="5800" width="2224" height="1262" fill="#FFFFFF"/><g clip-path="url(#clip1)"><path d="M2028.5 6674.72 3854.5 6674.72M2028.5 6537.71 3854.5 6537.71M2028.5 6401.71 3854.5 6401.71M2028.5 6265.71 3854.5 6265.71M2028.5 6128.7 3854.5 6128.7M2028.5 5992.7 3854.5 5992.7M2028.5 5856.5 3854.5 5856.5" stroke="#D9D9D9" stroke-width="3.4375" stroke-linejoin="round" stroke-miterlimit="10" fill="none"/></g><g clip-path="url(#clip2)"><path d="M2076.57 5856.5 2076.57 6810.5M2125.57 5856.5 2125.57 6810.5M2174.57 5856.5 2174.57 6810.5M2223.57 5856.5 2223.57 6810.5M2320.58 5856.5 2320.58 6810.5M2369.58 5856.5 2369.58 6810.5M2417.58 5856.5 2417.58 6810.5M2466.58 5856.5 2466.58 6810.5M2563.58 5856.5 2563.58 6810.5M2612.59 5856.5 2612.59 6810.5M2661.59 5856.5 2661.59 6810.5M2710.59 5856.5 2710.59 6810.5M2807.59 5856.5 2807.59 6810.5M2856.59 5856.5 2856.59 6810.5M2904.6 5856.5 2904.6 6810.5M2953.6 5856.5 2953.6 6810.5M3051.6 5856.5 3051.6 6810.5M3099.6 5856.5 3099.6 6810.5M3148.6 5856.5 3148.6 6810.5M3197.6 5856.5 3197.6 6810.5M3294.61 5856.5 3294.61 6810.5M3343.61 5856.5 3343.61 6810.5M3392.61 5856.5 3392.61 6810.5M3440.61 5856.5 3440.61 6810.5M3538.62 5856.5 3538.62 6810.5M3586.62 5856.5 3586.62 6810.5M3635.62 5856.5 3635.62 6810.5M3684.62 5856.5 3684.62 6810.5M3781.62 5856.5 3781.62 6810.5M3830.5 5856.5 3830.5 6810.5" stroke="#F2F2F2" stroke-width="3.4375" stroke-linejoin="round" stroke-miterlimit="10" fill="none"/></g><g clip-path="url(#clip3)"><path d="M2271.57 5856.5 2271.57 6810.5M2515.58 5856.5 2515.58 6810.5M2758.59 5856.5 2758.59 6810.5M3002.6 5856.5 3002.6 6810.5M3245.61 5856.5 3245.61 6810.5M3489.61 5856.5 3489.61 6810.5M3733.5 5856.5 3733.5 6810.5" stroke="#D9D9D9" stroke-width="3.4375" stroke-linejoin="round" stroke-miterlimit="10" fill="none"/></g><g clip-path="url(#clip4)"><rect x="2028.5" y="5856.5" width="1826" height="954" stroke="#BFBFBF" stroke-width="3.4375" stroke-linejoin="round" stroke-miterlimit="10" fill="none"/></g><g clip-path="url(#clip5)"><path d="M0 0 0.000360892 954" stroke="#BFBFBF" stroke-width="3.4375" stroke-linejoin="round" stroke-miterlimit="10" fill="none" fill-rule="evenodd" transform="matrix(1 0 0 -1 2028.5 6810.5)"/></g><g clip-path="url(#clip6)"><path d="M2028.5 6810.5 2041.5 6810.5M2028.5 6783.72 2041.5 6783.72M2028.5 6756.72 2041.5 6756.72M2028.5 6728.72 2041.5 6728.72M2028.5 6701.72 2041.5 6701.72M2028.5 6674.72 2041.5 6674.72M2028.5 6646.72 2041.5 6646.72M2028.5 6619.72 2041.5 6619.72M2028.5 6592.72 2041.5 6592.72M2028.5 6565.72 2041.5 6565.72M2028.5 6537.71 2041.5 6537.71M2028.5 6510.71 2041.5 6510.71M2028.5 6483.71 2041.5 6483.71M2028.5 6456.71 2041.5 6456.71M2028.5 6428.71 2041.5 6428.71M2028.5 6401.71 2041.5 6401.71M2028.5 6374.71 2041.5 6374.71M2028.5 6346.71 2041.5 6346.71M2028.5 6319.71 2041.5 6319.71M2028.5 6292.71 2041.5 6292.71M2028.5 6265.71 2041.5 6265.71M2028.5 6237.71 2041.5 6237.71M2028.5 6210.7 2041.5 6210.7M2028.5 6183.7 2041.5 6183.7M2028.5 6155.7 2041.5 6155.7M2028.5 6128.7 2041.5 6128.7M2028.5 6101.7 2041.5 6101.7M2028.5 6074.7 2041.5 6074.7M2028.5 6046.7 2041.5 6046.7M2028.5 6019.7 2041.5 6019.7M2028.5 5992.7 2041.5 5992.7M2028.5 5965.7 2041.5 5965.7M2028.5 5937.69 2041.5 5937.69M2028.5 5910.69 2041.5 5910.69M2028.5 5883.69 2041.5 5883.69M2028.5 5856.5 2041.5 5856.5" stroke="#BFBFBF" stroke-width="3.4375" stroke-linejoin="round" stroke-miterlimit="10" fill="none"/></g><g clip-path="url(#clip7)"><path d="M2028.5 6810.5 3854.5 6810.5" stroke="#BFBFBF" stroke-width="3.4375" stroke-linejoin="round" stroke-miterlimit="10" fill="none" fill-rule="evenodd"/></g><g clip-path="url(#clip8)"><path d="M2028.5 6797.5 2028.5 6810.5M2076.57 6797.5 2076.57 6810.5M2125.57 6797.5 2125.57 6810.5M2174.57 6797.5 2174.57 6810.5M2223.57 6797.5 2223.57 6810.5M2271.57 6797.5 2271.57 6810.5M2320.58 6797.5 2320.58 6810.5M2369.58 6797.5 2369.58 6810.5M2417.58 6797.5 2417.58 6810.5M2466.58 6797.5 2466.58 6810.5M2515.58 6797.5 2515.58 6810.5M2563.58 6797.5 2563.58 6810.5M2612.59 6797.5 2612.59 6810.5M2661.59 6797.5 2661.59 6810.5M2710.59 6797.5 2710.59 6810.5M2758.59 6797.5 2758.59 6810.5M2807.59 6797.5 2807.59 6810.5M2856.59 6797.5 2856.59 6810.5M2904.6 6797.5 2904.6 6810.5M2953.6 6797.5 2953.6 6810.5M3002.6 6797.5 3002.6 6810.5M3051.6 6797.5 3051.6 6810.5M3099.6 6797.5 3099.6 6810.5M3148.6 6797.5 3148.6 6810.5M3197.6 6797.5 3197.6 6810.5M3245.61 6797.5 3245.61 6810.5M3294.61 6797.5 3294.61 6810.5M3343.61 6797.5 3343.61 6810.5M3392.61 6797.5 3392.61 6810.5M3440.61 6797.5 3440.61 6810.5M3489.61 6797.5 3489.61 6810.5M3538.62 6797.5 3538.62 6810.5M3586.62 6797.5 3586.62 6810.5M3635.62 6797.5 3635.62 6810.5M3684.62 6797.5 3684.62 6810.5M3732.62 6797.5 3732.62 6810.5M3781.62 6797.5 3781.62 6810.5M3830.5 6797.5 3830.5 6810.5" stroke="#BFBFBF" stroke-width="3.4375" stroke-linejoin="round" stroke-miterlimit="10" fill="none"/></g><g clip-path="url(#clip9)"><path d="M2051.88 6039.16C2051.88 6045.23 2046.95 6050.15 2040.88 6050.15 2034.8 6050.15 2029.88 6045.23 2029.88 6039.16 2029.88 6033.08 2034.8 6028.16 2040.88 6028.16 2046.95 6028.16 2051.88 6033.08 2051.88 6039.16Z" stroke="#4472C4" stroke-width="3.4375" stroke-linejoin="round" stroke-miterlimit="10" fill="#4472C4"/><path d="M2082.88 6042.16C2082.88 6048.23 2077.95 6053.15 2071.88 6053.15 2065.8 6053.15 2060.88 6048.23 2060.88 6042.16 2060.88 6036.08 2065.8 6031.16 2071.88 6031.16 2077.95 6031.16 2082.88 6036.08 2082.88 6042.16Z" stroke="#4472C4" stroke-width="3.4375" stroke-linejoin="round" stroke-miterlimit="10" fill="#4472C4"/><path d="M2114.88 6042.16C2114.88 6048.23 2109.95 6053.15 2103.88 6053.15 2097.8 6053.15 2092.88 6048.23 2092.88 6042.16 2092.88 6036.08 2097.8 6031.16 2103.88 6031.16 2109.95 6031.16 2114.88 6036.08 2114.88 6042.16Z" stroke="#4472C4" stroke-width="3.4375" stroke-linejoin="round" stroke-miterlimit="10" fill="#4472C4"/><path d="M2146.88 6038.16C2146.88 6044.23 2141.95 6049.15 2135.88 6049.15 2129.8 6049.15 2124.88 6044.23 2124.88 6038.16 2124.88 6032.08 2129.8 6027.16 2135.88 6027.16 2141.95 6027.16 2146.88 6032.08 2146.88 6038.16Z" stroke="#4472C4" stroke-width="3.4375" stroke-linejoin="round" stroke-miterlimit="10" fill="#4472C4"/><path d="M2178.88 6035.16C2178.88 6041.23 2173.95 6046.15 2167.88 6046.15 2161.8 6046.15 2156.88 6041.23 2156.88 6035.16 2156.88 6029.08 2161.8 6024.16 2167.88 6024.16 2173.95 6024.16 2178.88 6029.08 2178.88 6035.16Z" stroke="#4472C4" stroke-width="3.4375" stroke-linejoin="round" stroke-miterlimit="10" fill="#4472C4"/><path d="M2210.88 6030.16C2210.88 6036.23 2205.95 6041.15 2199.88 6041.15 2193.8 6041.15 2188.88 6036.23 2188.88 6030.16 2188.88 6024.08 2193.8 6019.16 2199.88 6019.16 2205.95 6019.16 2210.88 6024.08 2210.88 6030.16Z" stroke="#4472C4" stroke-width="3.4375" stroke-linejoin="round" stroke-miterlimit="10" fill="#4472C4"/><path d="M2242.88 6023.16C2242.88 6029.23 2237.95 6034.15 2231.88 6034.15 2225.8 6034.15 2220.88 6029.23 2220.88 6023.16 2220.88 6017.08 2225.8 6012.16 2231.88 6012.16 2237.95 6012.16 2242.88 6017.08 2242.88 6023.16Z" stroke="#4472C4" stroke-width="3.4375" stroke-linejoin="round" stroke-miterlimit="10" fill="#4472C4"/><path d="M2274.88 6016.16C2274.88 6022.23 2269.95 6027.15 2263.88 6027.15 2257.8 6027.15 2252.88 6022.23 2252.88 6016.16 2252.88 6010.08 2257.8 6005.16 2263.88 6005.16 2269.95 6005.16 2274.88 6010.08 2274.88 6016.16Z" stroke="#4472C4" stroke-width="3.4375" stroke-linejoin="round" stroke-miterlimit="10" fill="#4472C4"/><path d="M2306.88 6012.16C2306.88 6018.23 2301.95 6023.15 2295.88 6023.15 2289.8 6023.15 2284.88 6018.23 2284.88 6012.16 2284.88 6006.08 2289.8 6001.16 2295.88 6001.16 2301.95 6001.16 2306.88 6006.08 2306.88 6012.16Z" stroke="#4472C4" stroke-width="3.4375" stroke-linejoin="round" stroke-miterlimit="10" fill="#4472C4"/><path d="M2338.88 6011.16C2338.88 6017.23 2333.95 6022.15 2327.88 6022.15 2321.8 6022.15 2316.88 6017.23 2316.88 6011.16 2316.88 6005.08 2321.8 6000.16 2327.88 6000.16 2333.95 6000.16 2338.88 6005.08 2338.88 6011.16Z" stroke="#4472C4" stroke-width="3.4375" stroke-linejoin="round" stroke-miterlimit="10" fill="#4472C4"/><path d="M2370.88 6015.16C2370.88 6021.23 2365.95 6026.15 2359.88 6026.15 2353.8 6026.15 2348.88 6021.23 2348.88 6015.16 2348.88 6009.08 2353.8 6004.16 2359.88 6004.16 2365.95 6004.16 2370.88 6009.08 2370.88 6015.16Z" stroke="#4472C4" stroke-width="3.4375" stroke-linejoin="round" stroke-miterlimit="10" fill="#4472C4"/><path d="M2402.88 6025.16C2402.88 6031.23 2397.95 6036.15 2391.88 6036.15 2385.8 6036.15 2380.88 6031.23 2380.88 6025.16 2380.88 6019.08 2385.8 6014.16 2391.88 6014.16 2397.95 6014.16 2402.88 6019.08 2402.88 6025.16Z" stroke="#4472C4" stroke-width="3.4375" stroke-linejoin="round" stroke-miterlimit="10" fill="#4472C4"/><path d="M2434.88 6211.16C2434.88 6217.23 2429.95 6222.15 2423.88 6222.15 2417.8 6222.15 2412.88 6217.23 2412.88 6211.16 2412.88 6205.08 2417.8 6200.16 2423.88 6200.16 2429.95 6200.16 2434.88 6205.08 2434.88 6211.16Z" stroke="#4472C4" stroke-width="3.4375" stroke-linejoin="round" stroke-miterlimit="10" fill="#4472C4"/><path d="M2466.88 6259.16C2466.88 6265.23 2461.95 6270.15 2455.88 6270.15 2449.8 6270.15 2444.88 6265.23 2444.88 6259.16 2444.88 6253.08 2449.8 6248.16 2455.88 6248.16 2461.95 6248.16 2466.88 6253.08 2466.88 6259.16Z" stroke="#4472C4" stroke-width="3.4375" stroke-linejoin="round" stroke-miterlimit="10" fill="#4472C4"/><path d="M2497.88 6274.16C2497.88 6280.23 2492.95 6285.15 2486.88 6285.15 2480.8 6285.15 2475.88 6280.23 2475.88 6274.16 2475.88 6268.08 2480.8 6263.16 2486.88 6263.16 2492.95 6263.16 2497.88 6268.08 2497.88 6274.16Z" stroke="#4472C4" stroke-width="3.4375" stroke-linejoin="round" stroke-miterlimit="10" fill="#4472C4"/><path d="M2529.88 6281.16C2529.88 6287.23 2524.95 6292.15 2518.88 6292.15 2512.8 6292.15 2507.88 6287.23 2507.88 6281.16 2507.88 6275.08 2512.8 6270.16 2518.88 6270.16 2524.95 6270.16 2529.88 6275.08 2529.88 6281.16Z" stroke="#4472C4" stroke-width="3.4375" stroke-linejoin="round" stroke-miterlimit="10" fill="#4472C4"/><path d="M2561.88 6298.16C2561.88 6304.23 2556.95 6309.15 2550.88 6309.15 2544.8 6309.15 2539.88 6304.23 2539.88 6298.16 2539.88 6292.08 2544.8 6287.16 2550.88 6287.16 2556.95 6287.16 2561.88 6292.08 2561.88 6298.16Z" stroke="#4472C4" stroke-width="3.4375" stroke-linejoin="round" stroke-miterlimit="10" fill="#4472C4"/><path d="M2593.88 6279.16C2593.88 6285.23 2588.95 6290.15 2582.88 6290.15 2576.8 6290.15 2571.88 6285.23 2571.88 6279.16 2571.88 6273.08 2576.8 6268.16 2582.88 6268.16 2588.95 6268.16 2593.88 6273.08 2593.88 6279.16Z" stroke="#4472C4" stroke-width="3.4375" stroke-linejoin="round" stroke-miterlimit="10" fill="#4472C4"/><path d="M2625.88 6294.16C2625.88 6300.23 2620.95 6305.15 2614.88 6305.15 2608.8 6305.15 2603.88 6300.23 2603.88 6294.16 2603.88 6288.08 2608.8 6283.16 2614.88 6283.16 2620.95 6283.16 2625.88 6288.08 2625.88 6294.16Z" stroke="#4472C4" stroke-width="3.4375" stroke-linejoin="round" stroke-miterlimit="10" fill="#4472C4"/><path d="M2657.88 6321.16C2657.88 6327.23 2652.95 6332.15 2646.88 6332.15 2640.8 6332.15 2635.88 6327.23 2635.88 6321.16 2635.88 6315.08 2640.8 6310.16 2646.88 6310.16 2652.95 6310.16 2657.88 6315.08 2657.88 6321.16Z" stroke="#4472C4" stroke-width="3.4375" stroke-linejoin="round" stroke-miterlimit="10" fill="#4472C4"/><path d="M2689.88 6370.15C2689.88 6376.23 2684.95 6381.15 2678.88 6381.15 2672.8 6381.15 2667.88 6376.23 2667.88 6370.15 2667.88 6364.08 2672.8 6359.15 2678.88 6359.15 2684.95 6359.15 2689.88 6364.08 2689.88 6370.15Z" stroke="#4472C4" stroke-width="3.4375" stroke-linejoin="round" stroke-miterlimit="10" fill="#4472C4"/><path d="M2721.88 6422.16C2721.88 6428.23 2716.95 6433.15 2710.88 6433.15 2704.8 6433.15 2699.88 6428.23 2699.88 6422.16 2699.88 6416.08 2704.8 6411.16 2710.88 6411.16 2716.95 6411.16 2721.88 6416.08 2721.88 6422.16Z" stroke="#4472C4" stroke-width="3.4375" stroke-linejoin="round" stroke-miterlimit="10" fill="#4472C4"/><path d="M2753.88 6456.16C2753.88 6462.23 2748.95 6467.15 2742.88 6467.15 2736.8 6467.15 2731.88 6462.23 2731.88 6456.16 2731.88 6450.08 2736.8 6445.16 2742.88 6445.16 2748.95 6445.16 2753.88 6450.08 2753.88 6456.16Z" stroke="#4472C4" stroke-width="3.4375" stroke-linejoin="round" stroke-miterlimit="10" fill="#4472C4"/><path d="M2785.88 6477.16C2785.88 6483.23 2780.95 6488.15 2774.88 6488.15 2768.8 6488.15 2763.88 6483.23 2763.88 6477.16 2763.88 6471.08 2768.8 6466.16 2774.88 6466.16 2780.95 6466.16 2785.88 6471.08 2785.88 6477.16Z" stroke="#4472C4" stroke-width="3.4375" stroke-linejoin="round" stroke-miterlimit="10" fill="#4472C4"/><path d="M2817.88 6500.16C2817.88 6506.23 2812.95 6511.15 2806.88 6511.15 2800.8 6511.15 2795.88 6506.23 2795.88 6500.16 2795.88 6494.08 2800.8 6489.16 2806.88 6489.16 2812.95 6489.16 2817.88 6494.08 2817.88 6500.16Z" stroke="#4472C4" stroke-width="3.4375" stroke-linejoin="round" stroke-miterlimit="10" fill="#4472C4"/><path d="M2849.88 6500.16C2849.88 6506.23 2844.95 6511.15 2838.88 6511.15 2832.8 6511.15 2827.88 6506.23 2827.88 6500.16 2827.88 6494.08 2832.8 6489.16 2838.88 6489.16 2844.95 6489.16 2849.88 6494.08 2849.88 6500.16Z" stroke="#4472C4" stroke-width="3.4375" stroke-linejoin="round" stroke-miterlimit="10" fill="#4472C4"/><path d="M2881.88 6494.16C2881.88 6500.23 2876.95 6505.15 2870.88 6505.15 2864.8 6505.15 2859.88 6500.23 2859.88 6494.16 2859.88 6488.08 2864.8 6483.16 2870.88 6483.16 2876.95 6483.16 2881.88 6488.08 2881.88 6494.16Z" stroke="#4472C4" stroke-width="3.4375" stroke-linejoin="round" stroke-miterlimit="10" fill="#4472C4"/><path d="M2912.88 6506.16C2912.88 6512.23 2907.95 6517.15 2901.88 6517.15 2895.8 6517.15 2890.88 6512.23 2890.88 6506.16 2890.88 6500.08 2895.8 6495.16 2901.88 6495.16 2907.95 6495.16 2912.88 6500.08 2912.88 6506.16Z" stroke="#4472C4" stroke-width="3.4375" stroke-linejoin="round" stroke-miterlimit="10" fill="#4472C4"/><path d="M2944.88 6538.16C2944.88 6544.23 2939.95 6549.15 2933.88 6549.15 2927.8 6549.15 2922.88 6544.23 2922.88 6538.16 2922.88 6532.08 2927.8 6527.16 2933.88 6527.16 2939.95 6527.16 2944.88 6532.08 2944.88 6538.16Z" stroke="#4472C4" stroke-width="3.4375" stroke-linejoin="round" stroke-miterlimit="10" fill="#4472C4"/><path d="M2976.88 6560.16C2976.88 6566.23 2971.95 6571.15 2965.88 6571.15 2959.8 6571.15 2954.88 6566.23 2954.88 6560.16 2954.88 6554.08 2959.8 6549.16 2965.88 6549.16 2971.95 6549.16 2976.88 6554.08 2976.88 6560.16Z" stroke="#4472C4" stroke-width="3.4375" stroke-linejoin="round" stroke-miterlimit="10" fill="#4472C4"/><path d="M3008.88 6551.16C3008.88 6557.23 3003.95 6562.15 2997.88 6562.15 2991.8 6562.15 2986.88 6557.23 2986.88 6551.16 2986.88 6545.08 2991.8 6540.16 2997.88 6540.16 3003.95 6540.16 3008.88 6545.08 3008.88 6551.16Z" stroke="#4472C4" stroke-width="3.4375" stroke-linejoin="round" stroke-miterlimit="10" fill="#4472C4"/><path d="M3040.88 6539.16C3040.88 6545.23 3035.95 6550.15 3029.88 6550.15 3023.8 6550.15 3018.88 6545.23 3018.88 6539.16 3018.88 6533.08 3023.8 6528.16 3029.88 6528.16 3035.95 6528.16 3040.88 6533.08 3040.88 6539.16Z" stroke="#4472C4" stroke-width="3.4375" stroke-linejoin="round" stroke-miterlimit="10" fill="#4472C4"/><path d="M3072.88 6539.16C3072.88 6545.23 3067.95 6550.15 3061.88 6550.15 3055.8 6550.15 3050.88 6545.23 3050.88 6539.16 3050.88 6533.08 3055.8 6528.16 3061.88 6528.16 3067.95 6528.16 3072.88 6533.08 3072.88 6539.16Z" stroke="#4472C4" stroke-width="3.4375" stroke-linejoin="round" stroke-miterlimit="10" fill="#4472C4"/><path d="M3104.88 6541.16C3104.88 6547.23 3099.95 6552.15 3093.88 6552.15 3087.8 6552.15 3082.88 6547.23 3082.88 6541.16 3082.88 6535.08 3087.8 6530.16 3093.88 6530.16 3099.95 6530.16 3104.88 6535.08 3104.88 6541.16Z" stroke="#4472C4" stroke-width="3.4375" stroke-linejoin="round" stroke-miterlimit="10" fill="#4472C4"/><path d="M3136.88 6582.16C3136.88 6588.23 3131.95 6593.15 3125.88 6593.15 3119.8 6593.15 3114.88 6588.23 3114.88 6582.16 3114.88 6576.08 3119.8 6571.16 3125.88 6571.16 3131.95 6571.16 3136.88 6576.08 3136.88 6582.16Z" stroke="#4472C4" stroke-width="3.4375" stroke-linejoin="round" stroke-miterlimit="10" fill="#4472C4"/><path d="M3168.88 6622.16C3168.88 6628.23 3163.95 6633.15 3157.88 6633.15 3151.8 6633.15 3146.88 6628.23 3146.88 6622.16 3146.88 6616.08 3151.8 6611.16 3157.88 6611.16 3163.95 6611.16 3168.88 6616.08 3168.88 6622.16Z" stroke="#4472C4" stroke-width="3.4375" stroke-linejoin="round" stroke-miterlimit="10" fill="#4472C4"/><path d="M3200.88 6643.16C3200.88 6649.23 3195.95 6654.15 3189.88 6654.15 3183.8 6654.15 3178.88 6649.23 3178.88 6643.16 3178.88 6637.08 3183.8 6632.16 3189.88 6632.16 3195.95 6632.16 3200.88 6637.08 3200.88 6643.16Z" stroke="#4472C4" stroke-width="3.4375" stroke-linejoin="round" stroke-miterlimit="10" fill="#4472C4"/><path d="M3232.88 6657.16C3232.88 6663.23 3227.95 6668.15 3221.88 6668.15 3215.8 6668.15 3210.88 6663.23 3210.88 6657.16 3210.88 6651.08 3215.8 6646.16 3221.88 6646.16 3227.95 6646.16 3232.88 6651.08 3232.88 6657.16Z" stroke="#4472C4" stroke-width="3.4375" stroke-linejoin="round" stroke-miterlimit="10" fill="#4472C4"/><path d="M3264.88 6668.16C3264.88 6674.23 3259.95 6679.15 3253.88 6679.15 3247.8 6679.15 3242.88 6674.23 3242.88 6668.16 3242.88 6662.08 3247.8 6657.16 3253.88 6657.16 3259.95 6657.16 3264.88 6662.08 3264.88 6668.16Z" stroke="#4472C4" stroke-width="3.4375" stroke-linejoin="round" stroke-miterlimit="10" fill="#4472C4"/><path d="M3296.88 6677.16C3296.88 6683.23 3291.95 6688.15 3285.88 6688.15 3279.8 6688.15 3274.88 6683.23 3274.88 6677.16 3274.88 6671.08 3279.8 6666.16 3285.88 6666.16 3291.95 6666.16 3296.88 6671.08 3296.88 6677.16Z" stroke="#4472C4" stroke-width="3.4375" stroke-linejoin="round" stroke-miterlimit="10" fill="#4472C4"/><path d="M3327.88 6683.16C3327.88 6689.23 3322.95 6694.15 3316.88 6694.15 3310.8 6694.15 3305.88 6689.23 3305.88 6683.16 3305.88 6677.08 3310.8 6672.16 3316.88 6672.16 3322.95 6672.16 3327.88 6677.08 3327.88 6683.16Z" stroke="#4472C4" stroke-width="3.4375" stroke-linejoin="round" stroke-miterlimit="10" fill="#4472C4"/><path d="M3359.88 6692.16C3359.88 6698.23 3354.95 6703.15 3348.88 6703.15 3342.8 6703.15 3337.88 6698.23 3337.88 6692.16 3337.88 6686.08 3342.8 6681.16 3348.88 6681.16 3354.95 6681.16 3359.88 6686.08 3359.88 6692.16Z" stroke="#4472C4" stroke-width="3.4375" stroke-linejoin="round" stroke-miterlimit="10" fill="#4472C4"/><path d="M3391.88 6694.16C3391.88 6700.23 3386.95 6705.15 3380.88 6705.15 3374.8 6705.15 3369.88 6700.23 3369.88 6694.16 3369.88 6688.08 3374.8 6683.16 3380.88 6683.16 3386.95 6683.16 3391.88 6688.08 3391.88 6694.16Z" stroke="#4472C4" stroke-width="3.4375" stroke-linejoin="round" stroke-miterlimit="10" fill="#4472C4"/><path d="M3423.88 6698.16C3423.88 6704.23 3418.95 6709.15 3412.88 6709.15 3406.8 6709.15 3401.88 6704.23 3401.88 6698.16 3401.88 6692.08 3406.8 6687.16 3412.88 6687.16 3418.95 6687.16 3423.88 6692.08 3423.88 6698.16Z" stroke="#4472C4" stroke-width="3.4375" stroke-linejoin="round" stroke-miterlimit="10" fill="#4472C4"/><path d="M3455.88 6702.16C3455.88 6708.23 3450.95 6713.15 3444.88 6713.15 3438.8 6713.15 3433.88 6708.23 3433.88 6702.16 3433.88 6696.08 3438.8 6691.16 3444.88 6691.16 3450.95 6691.16 3455.88 6696.08 3455.88 6702.16Z" stroke="#4472C4" stroke-width="3.4375" stroke-linejoin="round" stroke-miterlimit="10" fill="#4472C4"/><path d="M3487.88 6705.16C3487.88 6711.23 3482.95 6716.15 3476.88 6716.15 3470.8 6716.15 3465.88 6711.23 3465.88 6705.16 3465.88 6699.08 3470.8 6694.16 3476.88 6694.16 3482.95 6694.16 3487.88 6699.08 3487.88 6705.16Z" stroke="#4472C4" stroke-width="3.4375" stroke-linejoin="round" stroke-miterlimit="10" fill="#4472C4"/><path d="M3519.88 6710.16C3519.88 6716.23 3514.95 6721.15 3508.88 6721.15 3502.8 6721.15 3497.88 6716.23 3497.88 6710.16 3497.88 6704.08 3502.8 6699.16 3508.88 6699.16 3514.95 6699.16 3519.88 6704.08 3519.88 6710.16Z" stroke="#4472C4" stroke-width="3.4375" stroke-linejoin="round" stroke-miterlimit="10" fill="#4472C4"/><path d="M3551.88 6714.16C3551.88 6720.23 3546.95 6725.15 3540.88 6725.15 3534.8 6725.15 3529.88 6720.23 3529.88 6714.16 3529.88 6708.08 3534.8 6703.16 3540.88 6703.16 3546.95 6703.16 3551.88 6708.08 3551.88 6714.16Z" stroke="#4472C4" stroke-width="3.4375" stroke-linejoin="round" stroke-miterlimit="10" fill="#4472C4"/><path d="M3583.88 6712.16C3583.88 6718.23 3578.95 6723.15 3572.88 6723.15 3566.8 6723.15 3561.88 6718.23 3561.88 6712.16 3561.88 6706.08 3566.8 6701.16 3572.88 6701.16 3578.95 6701.16 3583.88 6706.08 3583.88 6712.16Z" stroke="#4472C4" stroke-width="3.4375" stroke-linejoin="round" stroke-miterlimit="10" fill="#4472C4"/><path d="M3615.88 6713.16C3615.88 6719.23 3610.95 6724.15 3604.88 6724.15 3598.8 6724.15 3593.88 6719.23 3593.88 6713.16 3593.88 6707.08 3598.8 6702.16 3604.88 6702.16 3610.95 6702.16 3615.88 6707.08 3615.88 6713.16Z" stroke="#4472C4" stroke-width="3.4375" stroke-linejoin="round" stroke-miterlimit="10" fill="#4472C4"/><path d="M3647.88 6716.16C3647.88 6722.23 3642.95 6727.15 3636.88 6727.15 3630.8 6727.15 3625.88 6722.23 3625.88 6716.16 3625.88 6710.08 3630.8 6705.16 3636.88 6705.16 3642.95 6705.16 3647.88 6710.08 3647.88 6716.16Z" stroke="#4472C4" stroke-width="3.4375" stroke-linejoin="round" stroke-miterlimit="10" fill="#4472C4"/><path d="M3679.88 6719.16C3679.88 6725.23 3674.95 6730.15 3668.88 6730.15 3662.8 6730.15 3657.88 6725.23 3657.88 6719.16 3657.88 6713.08 3662.8 6708.16 3668.88 6708.16 3674.95 6708.16 3679.88 6713.08 3679.88 6719.16Z" stroke="#4472C4" stroke-width="3.4375" stroke-linejoin="round" stroke-miterlimit="10" fill="#4472C4"/><path d="M3711.88 6721.16C3711.88 6727.23 3706.95 6732.15 3700.88 6732.15 3694.8 6732.15 3689.88 6727.23 3689.88 6721.16 3689.88 6715.08 3694.8 6710.16 3700.88 6710.16 3706.95 6710.16 3711.88 6715.08 3711.88 6721.16Z" stroke="#4472C4" stroke-width="3.4375" stroke-linejoin="round" stroke-miterlimit="10" fill="#4472C4"/><path d="M3742.88 6726.16C3742.88 6732.23 3737.95 6737.15 3731.88 6737.15 3725.8 6737.15 3720.88 6732.23 3720.88 6726.16 3720.88 6720.08 3725.8 6715.16 3731.88 6715.16 3737.95 6715.16 3742.88 6720.08 3742.88 6726.16Z" stroke="#4472C4" stroke-width="3.4375" stroke-linejoin="round" stroke-miterlimit="10" fill="#4472C4"/><path d="M3774.88 6728.16C3774.88 6734.23 3769.95 6739.15 3763.88 6739.15 3757.8 6739.15 3752.88 6734.23 3752.88 6728.16 3752.88 6722.08 3757.8 6717.16 3763.88 6717.16 3769.95 6717.16 3774.88 6722.08 3774.88 6728.16Z" stroke="#4472C4" stroke-width="3.4375" stroke-linejoin="round" stroke-miterlimit="10" fill="#4472C4"/><path d="M3806.88 6730.16C3806.88 6736.23 3801.95 6741.15 3795.88 6741.15 3789.8 6741.15 3784.88 6736.23 3784.88 6730.16 3784.88 6724.08 3789.8 6719.16 3795.88 6719.16 3801.95 6719.16 3806.88 6724.08 3806.88 6730.16Z" stroke="#4472C4" stroke-width="3.4375" stroke-linejoin="round" stroke-miterlimit="10" fill="#4472C4"/><path d="M3838.88 6732.16C3838.88 6738.23 3833.95 6743.15 3827.88 6743.15 3821.8 6743.15 3816.88 6738.23 3816.88 6732.16 3816.88 6726.08 3821.8 6721.16 3827.88 6721.16 3833.95 6721.16 3838.88 6726.08 3838.88 6732.16Z" stroke="#4472C4" stroke-width="3.4375" stroke-linejoin="round" stroke-miterlimit="10" fill="#4472C4"/></g><g clip-path="url(#clip10)"><path d="M2040.88 5927.16 2051.88 5938.16 2040.88 5949.15 2029.88 5938.16Z" stroke="#ED7D31" stroke-width="3.4375" stroke-linejoin="round" stroke-miterlimit="10" fill="#FF0000"/><path d="M2071.88 5934.16 2082.88 5945.16 2071.88 5956.15 2060.88 5945.16Z" stroke="#ED7D31" stroke-width="3.4375" stroke-linejoin="round" stroke-miterlimit="10" fill="#FF0000"/><path d="M2103.88 5938.16 2114.88 5949.16 2103.88 5960.15 2092.88 5949.16Z" stroke="#ED7D31" stroke-width="3.4375" stroke-linejoin="round" stroke-miterlimit="10" fill="#FF0000"/><path d="M2135.88 5930.15 2146.88 5941.15 2135.88 5952.15 2124.88 5941.15Z" stroke="#ED7D31" stroke-width="3.4375" stroke-linejoin="round" stroke-miterlimit="10" fill="#FF0000"/><path d="M2167.88 5938.16 2178.88 5949.16 2167.88 5960.15 2156.88 5949.16Z" stroke="#ED7D31" stroke-width="3.4375" stroke-linejoin="round" stroke-miterlimit="10" fill="#FF0000"/><path d="M2199.88 5929.16 2210.88 5940.16 2199.88 5951.15 2188.88 5940.16Z" stroke="#ED7D31" stroke-width="3.4375" stroke-linejoin="round" stroke-miterlimit="10" fill="#FF0000"/><path d="M2231.88 5926.16 2242.88 5937.16 2231.88 5948.15 2220.88 5937.16Z" stroke="#ED7D31" stroke-width="3.4375" stroke-linejoin="round" stroke-miterlimit="10" fill="#FF0000"/><path d="M2263.88 5920.16 2274.88 5931.16 2263.88 5942.15 2252.88 5931.16Z" stroke="#ED7D31" stroke-width="3.4375" stroke-linejoin="round" stroke-miterlimit="10" fill="#FF0000"/><path d="M2295.88 5927.16 2306.88 5938.16 2295.88 5949.15 2284.88 5938.16Z" stroke="#ED7D31" stroke-width="3.4375" stroke-linejoin="round" stroke-miterlimit="10" fill="#FF0000"/><path d="M2327.88 5928.16 2338.88 5939.16 2327.88 5950.15 2316.88 5939.16Z" stroke="#ED7D31" stroke-width="3.4375" stroke-linejoin="round" stroke-miterlimit="10" fill="#FF0000"/><path d="M2359.88 5944.16 2370.88 5955.16 2359.88 5966.15 2348.88 5955.16Z" stroke="#ED7D31" stroke-width="3.4375" stroke-linejoin="round" stroke-miterlimit="10" fill="#FF0000"/><path d="M2391.88 6045.16 2402.88 6056.16 2391.88 6067.15 2380.88 6056.16Z" stroke="#ED7D31" stroke-width="3.4375" stroke-linejoin="round" stroke-miterlimit="10" fill="#FF0000"/><path d="M2423.88 6153.16 2434.88 6164.16 2423.88 6175.15 2412.88 6164.16Z" stroke="#ED7D31" stroke-width="3.4375" stroke-linejoin="round" stroke-miterlimit="10" fill="#FF0000"/><path d="M2455.88 6183.15 2466.88 6194.15 2455.88 6205.15 2444.88 6194.15Z" stroke="#ED7D31" stroke-width="3.4375" stroke-linejoin="round" stroke-miterlimit="10" fill="#FF0000"/><path d="M2486.88 6183.15 2497.88 6194.15 2486.88 6205.15 2475.88 6194.15Z" stroke="#ED7D31" stroke-width="3.4375" stroke-linejoin="round" stroke-miterlimit="10" fill="#FF0000"/><path d="M2518.88 6185.16 2529.88 6196.16 2518.88 6207.15 2507.88 6196.16Z" stroke="#ED7D31" stroke-width="3.4375" stroke-linejoin="round" stroke-miterlimit="10" fill="#FF0000"/><path d="M2550.88 6186.16 2561.88 6197.16 2550.88 6208.15 2539.88 6197.16Z" stroke="#ED7D31" stroke-width="3.4375" stroke-linejoin="round" stroke-miterlimit="10" fill="#FF0000"/><path d="M2582.88 6209.16 2593.88 6220.16 2582.88 6231.15 2571.88 6220.16Z" stroke="#ED7D31" stroke-width="3.4375" stroke-linejoin="round" stroke-miterlimit="10" fill="#FF0000"/><path d="M2614.88 6238.15 2625.88 6249.15 2614.88 6260.15 2603.88 6249.15Z" stroke="#ED7D31" stroke-width="3.4375" stroke-linejoin="round" stroke-miterlimit="10" fill="#FF0000"/><path d="M2646.88 6264.16 2657.88 6275.16 2646.88 6286.15 2635.88 6275.16Z" stroke="#ED7D31" stroke-width="3.4375" stroke-linejoin="round" stroke-miterlimit="10" fill="#FF0000"/><path d="M2678.88 6336.16 2689.88 6347.16 2678.88 6358.15 2667.88 6347.16Z" stroke="#ED7D31" stroke-width="3.4375" stroke-linejoin="round" stroke-miterlimit="10" fill="#FF0000"/><path d="M2710.88 6385.16 2721.88 6396.16 2710.88 6407.15 2699.88 6396.16Z" stroke="#ED7D31" stroke-width="3.4375" stroke-linejoin="round" stroke-miterlimit="10" fill="#FF0000"/><path d="M2742.88 6439.16 2753.88 6450.16 2742.88 6461.15 2731.88 6450.16Z" stroke="#ED7D31" stroke-width="3.4375" stroke-linejoin="round" stroke-miterlimit="10" fill="#FF0000"/><path d="M2774.88 6439.16 2785.88 6450.16 2774.88 6461.15 2763.88 6450.16Z" stroke="#ED7D31" stroke-width="3.4375" stroke-linejoin="round" stroke-miterlimit="10" fill="#FF0000"/><path d="M2806.88 6463.16 2817.88 6474.16 2806.88 6485.15 2795.88 6474.16Z" stroke="#ED7D31" stroke-width="3.4375" stroke-linejoin="round" stroke-miterlimit="10" fill="#FF0000"/><path d="M2838.88 6476.16 2849.88 6487.16 2838.88 6498.15 2827.88 6487.16Z" stroke="#ED7D31" stroke-width="3.4375" stroke-linejoin="round" stroke-miterlimit="10" fill="#FF0000"/><path d="M2870.88 6484.16 2881.88 6495.16 2870.88 6506.15 2859.88 6495.16Z" stroke="#ED7D31" stroke-width="3.4375" stroke-linejoin="round" stroke-miterlimit="10" fill="#FF0000"/><path d="M2901.88 6508.16 2912.88 6519.16 2901.88 6530.15 2890.88 6519.16Z" stroke="#ED7D31" stroke-width="3.4375" stroke-linejoin="round" stroke-miterlimit="10" fill="#FF0000"/><path d="M2933.88 6535.15 2944.88 6546.15 2933.88 6557.15 2922.88 6546.15Z" stroke="#ED7D31" stroke-width="3.4375" stroke-linejoin="round" stroke-miterlimit="10" fill="#FF0000"/><path d="M2965.88 6536.16 2976.88 6547.16 2965.88 6558.15 2954.88 6547.16Z" stroke="#ED7D31" stroke-width="3.4375" stroke-linejoin="round" stroke-miterlimit="10" fill="#FF0000"/><path d="M2997.88 6528.16 3008.88 6539.16 2997.88 6550.15 2986.88 6539.16Z" stroke="#ED7D31" stroke-width="3.4375" stroke-linejoin="round" stroke-miterlimit="10" fill="#FF0000"/><path d="M3029.88 6529.16 3040.88 6540.16 3029.88 6551.15 3018.88 6540.16Z" stroke="#ED7D31" stroke-width="3.4375" stroke-linejoin="round" stroke-miterlimit="10" fill="#FF0000"/><path d="M3061.88 6528.16 3072.88 6539.16 3061.88 6550.15 3050.88 6539.16Z" stroke="#ED7D31" stroke-width="3.4375" stroke-linejoin="round" stroke-miterlimit="10" fill="#FF0000"/><path d="M3093.88 6551.16 3104.88 6562.16 3093.88 6573.15 3082.88 6562.16Z" stroke="#ED7D31" stroke-width="3.4375" stroke-linejoin="round" stroke-miterlimit="10" fill="#FF0000"/><path d="M3125.88 6585.16 3136.88 6596.16 3125.88 6607.15 3114.88 6596.16Z" stroke="#ED7D31" stroke-width="3.4375" stroke-linejoin="round" stroke-miterlimit="10" fill="#FF0000"/><path d="M3157.88 6616.16 3168.88 6627.16 3157.88 6638.15 3146.88 6627.16Z" stroke="#ED7D31" stroke-width="3.4375" stroke-linejoin="round" stroke-miterlimit="10" fill="#FF0000"/><path d="M3189.88 6643.16 3200.88 6654.16 3189.88 6665.15 3178.88 6654.16Z" stroke="#ED7D31" stroke-width="3.4375" stroke-linejoin="round" stroke-miterlimit="10" fill="#FF0000"/><path d="M3221.88 6659.16 3232.88 6670.16 3221.88 6681.15 3210.88 6670.16Z" stroke="#ED7D31" stroke-width="3.4375" stroke-linejoin="round" stroke-miterlimit="10" fill="#FF0000"/><path d="M3253.88 6662.16 3264.88 6673.16 3253.88 6684.15 3242.88 6673.16Z" stroke="#ED7D31" stroke-width="3.4375" stroke-linejoin="round" stroke-miterlimit="10" fill="#FF0000"/><path d="M3285.88 6672.16 3296.88 6683.16 3285.88 6694.15 3274.88 6683.16Z" stroke="#ED7D31" stroke-width="3.4375" stroke-linejoin="round" stroke-miterlimit="10" fill="#FF0000"/><path d="M3316.88 6670.16 3327.88 6681.16 3316.88 6692.15 3305.88 6681.16Z" stroke="#ED7D31" stroke-width="3.4375" stroke-linejoin="round" stroke-miterlimit="10" fill="#FF0000"/><path d="M3348.88 6679.16 3359.88 6690.16 3348.88 6701.15 3337.88 6690.16Z" stroke="#ED7D31" stroke-width="3.4375" stroke-linejoin="round" stroke-miterlimit="10" fill="#FF0000"/><path d="M3380.88 6687.16 3391.88 6698.16 3380.88 6709.15 3369.88 6698.16Z" stroke="#ED7D31" stroke-width="3.4375" stroke-linejoin="round" stroke-miterlimit="10" fill="#FF0000"/><path d="M3412.88 6696.16 3423.88 6707.16 3412.88 6718.15 3401.88 6707.16Z" stroke="#ED7D31" stroke-width="3.4375" stroke-linejoin="round" stroke-miterlimit="10" fill="#FF0000"/><path d="M3444.88 6699.16 3455.88 6710.16 3444.88 6721.15 3433.88 6710.16Z" stroke="#ED7D31" stroke-width="3.4375" stroke-linejoin="round" stroke-miterlimit="10" fill="#FF0000"/><path d="M3476.88 6703.16 3487.88 6714.16 3476.88 6725.15 3465.88 6714.16Z" stroke="#ED7D31" stroke-width="3.4375" stroke-linejoin="round" stroke-miterlimit="10" fill="#FF0000"/><path d="M3508.88 6707.16 3519.88 6718.16 3508.88 6729.15 3497.88 6718.16Z" stroke="#ED7D31" stroke-width="3.4375" stroke-linejoin="round" stroke-miterlimit="10" fill="#FF0000"/><path d="M3540.88 6710.16 3551.88 6721.16 3540.88 6732.15 3529.88 6721.16Z" stroke="#ED7D31" stroke-width="3.4375" stroke-linejoin="round" stroke-miterlimit="10" fill="#FF0000"/><path d="M3572.88 6706.16 3583.88 6717.16 3572.88 6728.15 3561.88 6717.16Z" stroke="#ED7D31" stroke-width="3.4375" stroke-linejoin="round" stroke-miterlimit="10" fill="#FF0000"/><path d="M3604.88 6708.16 3615.88 6719.16 3604.88 6730.15 3593.88 6719.16Z" stroke="#ED7D31" stroke-width="3.4375" stroke-linejoin="round" stroke-miterlimit="10" fill="#FF0000"/><path d="M3636.88 6712.16 3647.88 6723.16 3636.88 6734.15 3625.88 6723.16Z" stroke="#ED7D31" stroke-width="3.4375" stroke-linejoin="round" stroke-miterlimit="10" fill="#FF0000"/><path d="M3668.88 6713.16 3679.88 6724.16 3668.88 6735.15 3657.88 6724.16Z" stroke="#ED7D31" stroke-width="3.4375" stroke-linejoin="round" stroke-miterlimit="10" fill="#FF0000"/><path d="M3700.88 6712.16 3711.88 6723.16 3700.88 6734.15 3689.88 6723.16Z" stroke="#ED7D31" stroke-width="3.4375" stroke-linejoin="round" stroke-miterlimit="10" fill="#FF0000"/><path d="M3731.88 6713.16 3742.88 6724.16 3731.88 6735.15 3720.88 6724.16Z" stroke="#ED7D31" stroke-width="3.4375" stroke-linejoin="round" stroke-miterlimit="10" fill="#FF0000"/><path d="M3763.88 6718.16 3774.88 6729.16 3763.88 6740.15 3752.88 6729.16Z" stroke="#ED7D31" stroke-width="3.4375" stroke-linejoin="round" stroke-miterlimit="10" fill="#FF0000"/><path d="M3795.88 6717.16 3806.88 6728.16 3795.88 6739.15 3784.88 6728.16Z" stroke="#ED7D31" stroke-width="3.4375" stroke-linejoin="round" stroke-miterlimit="10" fill="#FF0000"/><path d="M3827.88 6710.16 3838.88 6721.16 3827.88 6732.15 3816.88 6721.16Z" stroke="#ED7D31" stroke-width="3.4375" stroke-linejoin="round" stroke-miterlimit="10" fill="#FF0000"/></g><g clip-path="url(#clip11)"><path d="M2040.88 5874.16 2051.88 5896.15 2029.88 5896.15Z" stroke="#92D050" stroke-width="3.4375" stroke-linejoin="round" stroke-miterlimit="10" fill="#92D050"/><path d="M2071.88 5864.15 2082.88 5886.15 2060.88 5886.15Z" stroke="#92D050" stroke-width="3.4375" stroke-linejoin="round" stroke-miterlimit="10" fill="#92D050"/><path d="M2103.88 5867.16 2114.88 5889.15 2092.88 5889.15Z" stroke="#92D050" stroke-width="3.4375" stroke-linejoin="round" stroke-miterlimit="10" fill="#92D050"/><path d="M2135.88 5859.16 2146.88 5881.15 2124.88 5881.15Z" stroke="#92D050" stroke-width="3.4375" stroke-linejoin="round" stroke-miterlimit="10" fill="#92D050"/><path d="M2167.88 5862.16 2178.88 5884.15 2156.88 5884.15Z" stroke="#92D050" stroke-width="3.4375" stroke-linejoin="round" stroke-miterlimit="10" fill="#92D050"/><path d="M2199.88 5858.16 2210.88 5880.15 2188.88 5880.15Z" stroke="#92D050" stroke-width="3.4375" stroke-linejoin="round" stroke-miterlimit="10" fill="#92D050"/><path d="M2231.88 5858.16 2242.88 5880.15 2220.88 5880.15Z" stroke="#92D050" stroke-width="3.4375" stroke-linejoin="round" stroke-miterlimit="10" fill="#92D050"/><path d="M2263.88 5853.15 2274.88 5875.15 2252.88 5875.15Z" stroke="#92D050" stroke-width="3.4375" stroke-linejoin="round" stroke-miterlimit="10" fill="#92D050"/><path d="M2295.88 5863.16 2306.88 5885.15 2284.88 5885.15Z" stroke="#92D050" stroke-width="3.4375" stroke-linejoin="round" stroke-miterlimit="10" fill="#92D050"/><path d="M2327.88 5874.16 2338.88 5896.15 2316.88 5896.15Z" stroke="#92D050" stroke-width="3.4375" stroke-linejoin="round" stroke-miterlimit="10" fill="#92D050"/><path d="M2359.88 5898.16 2370.88 5920.15 2348.88 5920.15Z" stroke="#92D050" stroke-width="3.4375" stroke-linejoin="round" stroke-miterlimit="10" fill="#92D050"/><path d="M2391.88 5911.16 2402.88 5933.15 2380.88 5933.15Z" stroke="#92D050" stroke-width="3.4375" stroke-linejoin="round" stroke-miterlimit="10" fill="#92D050"/><path d="M2423.88 5988.16 2434.88 6010.15 2412.88 6010.15Z" stroke="#92D050" stroke-width="3.4375" stroke-linejoin="round" stroke-miterlimit="10" fill="#92D050"/><path d="M2455.88 6076.16 2466.88 6098.15 2444.88 6098.15Z" stroke="#92D050" stroke-width="3.4375" stroke-linejoin="round" stroke-miterlimit="10" fill="#92D050"/><path d="M2486.88 6112.16 2497.88 6134.15 2475.88 6134.15Z" stroke="#92D050" stroke-width="3.4375" stroke-linejoin="round" stroke-miterlimit="10" fill="#92D050"/><path d="M2518.88 6235.16 2529.88 6257.15 2507.88 6257.15Z" stroke="#92D050" stroke-width="3.4375" stroke-linejoin="round" stroke-miterlimit="10" fill="#92D050"/><path d="M2550.88 6274.16 2561.88 6296.15 2539.88 6296.15Z" stroke="#92D050" stroke-width="3.4375" stroke-linejoin="round" stroke-miterlimit="10" fill="#92D050"/><path d="M2582.88 6197.16 2593.88 6219.15 2571.88 6219.15Z" stroke="#92D050" stroke-width="3.4375" stroke-linejoin="round" stroke-miterlimit="10" fill="#92D050"/><path d="M2614.88 6228.16 2625.88 6250.15 2603.88 6250.15Z" stroke="#92D050" stroke-width="3.4375" stroke-linejoin="round" stroke-miterlimit="10" fill="#92D050"/><path d="M2646.88 6273.16 2657.88 6295.15 2635.88 6295.15Z" stroke="#92D050" stroke-width="3.4375" stroke-linejoin="round" stroke-miterlimit="10" fill="#92D050"/><path d="M2678.88 6371.16 2689.88 6393.15 2667.88 6393.15Z" stroke="#92D050" stroke-width="3.4375" stroke-linejoin="round" stroke-miterlimit="10" fill="#92D050"/><path d="M2710.88 6367.16 2721.88 6389.15 2699.88 6389.15Z" stroke="#92D050" stroke-width="3.4375" stroke-linejoin="round" stroke-miterlimit="10" fill="#92D050"/><path d="M2742.88 6403.15 2753.88 6425.15 2731.88 6425.15Z" stroke="#92D050" stroke-width="3.4375" stroke-linejoin="round" stroke-miterlimit="10" fill="#92D050"/><path d="M2774.88 6497.16 2785.88 6519.15 2763.88 6519.15Z" stroke="#92D050" stroke-width="3.4375" stroke-linejoin="round" stroke-miterlimit="10" fill="#92D050"/><path d="M2806.88 6457.16 2817.88 6479.15 2795.88 6479.15Z" stroke="#92D050" stroke-width="3.4375" stroke-linejoin="round" stroke-miterlimit="10" fill="#92D050"/><path d="M2838.88 6481.16 2849.88 6503.15 2827.88 6503.15Z" stroke="#92D050" stroke-width="3.4375" stroke-linejoin="round" stroke-miterlimit="10" fill="#92D050"/><path d="M2870.88 6506.16 2881.88 6528.15 2859.88 6528.15Z" stroke="#92D050" stroke-width="3.4375" stroke-linejoin="round" stroke-miterlimit="10" fill="#92D050"/><path d="M2901.88 6529.16 2912.88 6551.15 2890.88 6551.15Z" stroke="#92D050" stroke-width="3.4375" stroke-linejoin="round" stroke-miterlimit="10" fill="#92D050"/><path d="M2933.88 6549.16 2944.88 6571.15 2922.88 6571.15Z" stroke="#92D050" stroke-width="3.4375" stroke-linejoin="round" stroke-miterlimit="10" fill="#92D050"/><path d="M2965.88 6640.16 2976.88 6662.15 2954.88 6662.15Z" stroke="#92D050" stroke-width="3.4375" stroke-linejoin="round" stroke-miterlimit="10" fill="#92D050"/><path d="M2997.88 6626.16 3008.88 6648.15 2986.88 6648.15Z" stroke="#92D050" stroke-width="3.4375" stroke-linejoin="round" stroke-miterlimit="10" fill="#92D050"/><path d="M3029.88 6617.16 3040.88 6639.15 3018.88 6639.15Z" stroke="#92D050" stroke-width="3.4375" stroke-linejoin="round" stroke-miterlimit="10" fill="#92D050"/><path d="M3061.88 6606.16 3072.88 6628.15 3050.88 6628.15Z" stroke="#92D050" stroke-width="3.4375" stroke-linejoin="round" stroke-miterlimit="10" fill="#92D050"/><path d="M3093.88 6605.16 3104.88 6627.15 3082.88 6627.15Z" stroke="#92D050" stroke-width="3.4375" stroke-linejoin="round" stroke-miterlimit="10" fill="#92D050"/><path d="M3125.88 6664.16 3136.88 6686.15 3114.88 6686.15Z" stroke="#92D050" stroke-width="3.4375" stroke-linejoin="round" stroke-miterlimit="10" fill="#92D050"/><path d="M3157.88 6634.15 3168.88 6656.15 3146.88 6656.15Z" stroke="#92D050" stroke-width="3.4375" stroke-linejoin="round" stroke-miterlimit="10" fill="#92D050"/><path d="M3189.88 6643.16 3200.88 6665.15 3178.88 6665.15Z" stroke="#92D050" stroke-width="3.4375" stroke-linejoin="round" stroke-miterlimit="10" fill="#92D050"/><path d="M3221.88 6650.16 3232.88 6672.15 3210.88 6672.15Z" stroke="#92D050" stroke-width="3.4375" stroke-linejoin="round" stroke-miterlimit="10" fill="#92D050"/><path d="M3253.88 6655.16 3264.88 6677.15 3242.88 6677.15Z" stroke="#92D050" stroke-width="3.4375" stroke-linejoin="round" stroke-miterlimit="10" fill="#92D050"/><path d="M3285.88 6661.16 3296.88 6683.15 3274.88 6683.15Z" stroke="#92D050" stroke-width="3.4375" stroke-linejoin="round" stroke-miterlimit="10" fill="#92D050"/><path d="M3316.88 6667.15 3327.88 6689.15 3305.88 6689.15Z" stroke="#92D050" stroke-width="3.4375" stroke-linejoin="round" stroke-miterlimit="10" fill="#92D050"/><path d="M3348.88 6684.16 3359.88 6706.15 3337.88 6706.15Z" stroke="#92D050" stroke-width="3.4375" stroke-linejoin="round" stroke-miterlimit="10" fill="#92D050"/><path d="M3380.88 6695.16 3391.88 6717.15 3369.88 6717.15Z" stroke="#92D050" stroke-width="3.4375" stroke-linejoin="round" stroke-miterlimit="10" fill="#92D050"/><path d="M3412.88 6710.16 3423.88 6732.15 3401.88 6732.15Z" stroke="#92D050" stroke-width="3.4375" stroke-linejoin="round" stroke-miterlimit="10" fill="#92D050"/><path d="M3444.88 6718.16 3455.88 6740.15 3433.88 6740.15Z" stroke="#92D050" stroke-width="3.4375" stroke-linejoin="round" stroke-miterlimit="10" fill="#92D050"/><path d="M3476.88 6719.16 3487.88 6741.15 3465.88 6741.15Z" stroke="#92D050" stroke-width="3.4375" stroke-linejoin="round" stroke-miterlimit="10" fill="#92D050"/><path d="M3508.88 6719.16 3519.88 6741.15 3497.88 6741.15Z" stroke="#92D050" stroke-width="3.4375" stroke-linejoin="round" stroke-miterlimit="10" fill="#92D050"/><path d="M3540.88 6718.16 3551.88 6740.15 3529.88 6740.15Z" stroke="#92D050" stroke-width="3.4375" stroke-linejoin="round" stroke-miterlimit="10" fill="#92D050"/><path d="M3572.88 6719.16 3583.88 6741.15 3561.88 6741.15Z" stroke="#92D050" stroke-width="3.4375" stroke-linejoin="round" stroke-miterlimit="10" fill="#92D050"/><path d="M3604.88 6719.16 3615.88 6741.15 3593.88 6741.15Z" stroke="#92D050" stroke-width="3.4375" stroke-linejoin="round" stroke-miterlimit="10" fill="#92D050"/><path d="M3636.88 6727.16 3647.88 6749.15 3625.88 6749.15Z" stroke="#92D050" stroke-width="3.4375" stroke-linejoin="round" stroke-miterlimit="10" fill="#92D050"/><path d="M3668.88 6736.16 3679.88 6758.15 3657.88 6758.15Z" stroke="#92D050" stroke-width="3.4375" stroke-linejoin="round" stroke-miterlimit="10" fill="#92D050"/><path d="M3700.88 6740.16 3711.88 6762.15 3689.88 6762.15Z" stroke="#92D050" stroke-width="3.4375" stroke-linejoin="round" stroke-miterlimit="10" fill="#92D050"/><path d="M3731.88 6735.16 3742.88 6757.15 3720.88 6757.15Z" stroke="#92D050" stroke-width="3.4375" stroke-linejoin="round" stroke-miterlimit="10" fill="#92D050"/><path d="M3763.88 6736.16 3774.88 6758.15 3752.88 6758.15Z" stroke="#92D050" stroke-width="3.4375" stroke-linejoin="round" stroke-miterlimit="10" fill="#92D050"/><path d="M3795.88 6738.16 3806.88 6760.15 3784.88 6760.15Z" stroke="#92D050" stroke-width="3.4375" stroke-linejoin="round" stroke-miterlimit="10" fill="#92D050"/><path d="M3827.88 6730.16 3838.88 6752.15 3816.88 6752.15Z" stroke="#92D050" stroke-width="3.4375" stroke-linejoin="round" stroke-miterlimit="10" fill="#92D050"/></g><g clip-path="url(#clip12)"><text fill="#595959" font-family="Calibri,Calibri_MSFontService,sans-serif" font-weight="400" font-size="55" transform="matrix(1 0 0 1 1893.62 6826)">500</text></g><g clip-path="url(#clip13)"><text fill="#595959" font-family="Calibri,Calibri_MSFontService,sans-serif" font-weight="400" font-size="55" transform="matrix(1 0 0 1 1893.62 6690)">600</text></g><g clip-path="url(#clip14)"><text fill="#595959" font-family="Calibri,Calibri_MSFontService,sans-serif" font-weight="400" font-size="55" transform="matrix(1 0 0 1 1893.62 6553)">700</text></g><g clip-path="url(#clip15)"><text fill="#595959" font-family="Calibri,Calibri_MSFontService,sans-serif" font-weight="400" font-size="55" transform="matrix(1 0 0 1 1893.62 6417)">800</text></g><g clip-path="url(#clip16)"><text fill="#595959" font-family="Calibri,Calibri_MSFontService,sans-serif" font-weight="400" font-size="55" transform="matrix(1 0 0 1 1893.62 6281)">900</text></g><g clip-path="url(#clip17)"><text fill="#595959" font-family="Calibri,Calibri_MSFontService,sans-serif" font-weight="400" font-size="55" transform="matrix(1 0 0 1 1865.75 6144)">1000</text></g><g clip-path="url(#clip18)"><text fill="#595959" font-family="Calibri,Calibri_MSFontService,sans-serif" font-weight="400" font-size="55" transform="matrix(1 0 0 1 1865.75 6008)">1100</text></g><g clip-path="url(#clip19)"><text fill="#595959" font-family="Calibri,Calibri_MSFontService,sans-serif" font-weight="400" font-size="55" transform="matrix(1 0 0 1 1865.75 5872)">1200</text></g><g clip-path="url(#clip20)"><text fill="#595959" font-family="Calibri,Calibri_MSFontService,sans-serif" font-weight="400" font-size="55" transform="matrix(1 0 0 1 2014.31 6898)">1</text></g><g clip-path="url(#clip21)"><text fill="#595959" font-family="Calibri,Calibri_MSFontService,sans-serif" font-weight="400" font-size="55" transform="matrix(1 0 0 1 2257.86 6898)">2</text></g><g clip-path="url(#clip22)"><text fill="#595959" font-family="Calibri,Calibri_MSFontService,sans-serif" font-weight="400" font-size="55" transform="matrix(1 0 0 1 2501.41 6898)">3</text></g><g clip-path="url(#clip23)"><text fill="#595959" font-family="Calibri,Calibri_MSFontService,sans-serif" font-weight="400" font-size="55" transform="matrix(1 0 0 1 2744.96 6898)">4</text></g><g clip-path="url(#clip24)"><text fill="#595959" font-family="Calibri,Calibri_MSFontService,sans-serif" font-weight="400" font-size="55" transform="matrix(1 0 0 1 2988.51 6898)">5</text></g><g clip-path="url(#clip25)"><text fill="#595959" font-family="Calibri,Calibri_MSFontService,sans-serif" font-weight="400" font-size="55" transform="matrix(1 0 0 1 3232.05 6898)">6</text></g><g clip-path="url(#clip26)"><text fill="#595959" font-family="Calibri,Calibri_MSFontService,sans-serif" font-weight="400" font-size="55" transform="matrix(1 0 0 1 3475.6 6898)">7</text></g><g clip-path="url(#clip27)"><text fill="#595959" font-family="Calibri,Calibri_MSFontService,sans-serif" font-weight="400" font-size="55" transform="matrix(1 0 0 1 3719.15 6898)">8</text></g><g clip-path="url(#clip28)"><text fill="#595959" font-family="Calibri,Calibri_MSFontService,sans-serif" font-weight="400" font-size="64" transform="matrix(6.12323e-17 -1 1 6.12323e-17 1834.68 6801)">Effective memory Bandwidth (GB/s)</text></g><g clip-path="url(#clip29)"><text fill="#595959" font-family="Calibri,Calibri_MSFontService,sans-serif" font-weight="400" font-size="64" transform="matrix(1 0 0 1 2792.74 6988)">nx*ny (MB)</text></g><g clip-path="url(#clip30)"><rect x="3389.5" y="5884.5" width="304" height="282" stroke="#000000" stroke-width="3.4375" stroke-linejoin="round" stroke-miterlimit="10" fill="none"/></g><g clip-path="url(#clip31)"><path d="M3440 5931C3440 5937.07 3435.07 5942 3429 5942 3422.93 5942 3418 5937.07 3418 5931 3418 5924.92 3422.93 5920 3429 5920 3435.07 5920 3440 5924.92 3440 5931Z" stroke="#4472C4" stroke-width="3.4375" stroke-linejoin="round" stroke-miterlimit="10" fill="#4472C4"/></g><g clip-path="url(#clip32)"><text fill="#595959" font-family="Calibri,Calibri_MSFontService,sans-serif" font-weight="400" font-size="55" transform="matrix(1 0 0 1 3458.27 5947)">nx = 256</text></g><g clip-path="url(#clip33)"><path d="M3429.5 6014.5 3440.5 6025.5 3429.5 6036.5 3418.5 6025.5Z" stroke="#ED7D31" stroke-width="3.4375" stroke-linejoin="round" stroke-miterlimit="10" fill="#FF0000"/></g><g clip-path="url(#clip34)"><text fill="#595959" font-family="Calibri,Calibri_MSFontService,sans-serif" font-weight="400" font-size="55" transform="matrix(1 0 0 1 3458.27 6041)">nx = 512</text></g><g clip-path="url(#clip35)"><path d="M3429.5 6108.5 3440.5 6130.5 3418.5 6130.5Z" stroke="#92D050" stroke-width="3.4375" stroke-linejoin="round" stroke-miterlimit="10" fill="#92D050"/></g><g clip-path="url(#clip36)"><text fill="#595959" font-family="Calibri,Calibri_MSFontService,sans-serif" font-weight="400" font-size="55" transform="matrix(1 0 0 1 3458.27 6135)">nx = 1024</text></g></g></svg>