<svg width="2473" height="1807" xmlns="http://www.w3.org/2000/svg" xmlns:xlink="http://www.w3.org/1999/xlink" xml:space="preserve" overflow="hidden"><defs><clipPath id="clip0"><rect x="4113" y="1170" width="2473" height="1807"/></clipPath><clipPath id="clip1"><rect x="4112" y="1170" width="2474" height="1806"/></clipPath><clipPath id="clip2"><rect x="4466" y="1359" width="1797" height="1119"/></clipPath><clipPath id="clip3"><rect x="4112" y="1170" width="2474" height="1806"/></clipPath><clipPath id="clip4"><rect x="4466" y="1359" width="1797" height="1119"/></clipPath><clipPath id="clip5"><rect x="4112" y="1170" width="2474" height="1806"/></clipPath><clipPath id="clip6"><rect x="4112" y="1170" width="2474" height="1806"/></clipPath><clipPath id="clip7"><rect x="4112" y="1170" width="2474" height="1806"/></clipPath><clipPath id="clip8"><rect x="4112" y="1170" width="2474" height="1806"/></clipPath><clipPath id="clip9"><rect x="4112" y="1170" width="2474" height="1806"/></clipPath><clipPath id="clip10"><rect x="4112" y="1170" width="2474" height="1806"/></clipPath><clipPath id="clip11"><rect x="4112" y="1170" width="2474" height="1806"/></clipPath><clipPath id="clip12"><rect x="4112" y="1170" width="2474" height="1806"/></clipPath><clipPath id="clip13"><rect x="4112" y="1170" width="2474" height="1806"/></clipPath><clipPath id="clip14"><rect x="4112" y="1170" width="2474" height="1806"/></clipPath><clipPath id="clip15"><rect x="4112" y="1170" width="2474" height="1806"/></clipPath><clipPath id="clip16"><rect x="4112" y="1170" width="2474" height="1806"/></clipPath><clipPath id="clip17"><rect x="4112" y="1170" width="2474" height="1806"/></clipPath><clipPath id="clip18"><rect x="4112" y="1170" width="2474" height="1806"/></clipPath><clipPath id="clip19"><rect x="4112" y="1170" width="2474" height="1806"/></clipPath><clipPath id="clip20"><rect x="4112" y="1170" width="2474" height="1806"/></clipPath><clipPath id="clip21"><rect x="4112" y="1170" width="2474" height="1806"/></clipPath><clipPath id="clip22"><rect x="4112" y="1170" width="2474" height="1806"/></clipPath><clipPath id="clip23"><rect x="4112" y="1170" width="2474" height="1806"/></clipPath><clipPath id="clip24"><rect x="4112" y="1170" width="2474" height="1806"/></clipPath><clipPath id="clip25"><rect x="4112" y="1170" width="2474" height="1806"/></clipPath><clipPath id="clip26"><rect x="4112" y="1170" width="2474" height="1806"/></clipPath><clipPath id="clip27"><rect x="4112" y="1170" width="2474" height="1806"/></clipPath><clipPath id="clip28"><rect x="4112" y="1170" width="2474" height="1806"/></clipPath><clipPath id="clip29"><rect x="4112" y="1170" width="2474" height="1806"/></clipPath><clipPath id="clip30"><rect x="4112" y="1170" width="2474" height="1806"/></clipPath><clipPath id="clip31"><rect x="4112" y="1170" width="2474" height="1806"/></clipPath><clipPath id="clip32"><rect x="4112" y="1170" width="2474" height="1806"/></clipPath><clipPath id="clip33"><rect x="4112" y="1170" width="2474" height="1806"/></clipPath><clipPath id="clip34"><rect x="4112" y="1170" width="2474" height="1806"/></clipPath><clipPath id="clip35"><rect x="4112" y="1170" width="2474" height="1806"/></clipPath><clipPath id="clip36"><rect x="4112" y="1170" width="2474" height="1806"/></clipPath><clipPath id="clip37"><rect x="4112" y="1170" width="2474" height="1806"/></clipPath><clipPath id="clip38"><rect x="4112" y="1170" width="2474" height="1806"/></clipPath><clipPath id="clip39"><rect x="4112" y="1170" width="2474" height="1806"/></clipPath><clipPath id="clip40"><rect x="4112" y="1170" width="2474" height="1806"/></clipPath><clipPath id="clip41"><rect x="4112" y="1170" width="2474" height="1806"/></clipPath><clipPath id="clip42"><rect x="4112" y="1170" width="2474" height="1806"/></clipPath><clipPath id="clip43"><rect x="4112" y="1170" width="2474" height="1806"/></clipPath><clipPath id="clip44"><rect x="4112" y="1170" width="2474" height="1806"/></clipPath><clipPath id="clip45"><rect x="4112" y="1170" width="2474" height="1806"/></clipPath></defs><g clip-path="url(#clip0)" transform="translate(-4113 -1170)"><rect x="4113" y="1170" width="2473" height="1807" fill="#FFFFFF"/><g clip-path="url(#clip1)"><path d="M4466.5 2363.58 6260.5 2363.58M4466.5 2251.57 6260.5 2251.57M4466.5 2140.57 6260.5 2140.57M4466.5 2028.57 6260.5 2028.57M4466.5 1917.56 6260.5 1917.56M4466.5 1805.56 6260.5 1805.56M4466.5 1694.56 6260.5 1694.56M4466.5 1582.55 6260.5 1582.55M4466.5 1471.55 6260.5 1471.55M4466.5 1359.5 6260.5 1359.5" stroke="#D9D9D9" stroke-width="3.4375" stroke-linejoin="round" stroke-miterlimit="10" fill="none"/></g><g clip-path="url(#clip2)"><path d="M4528.15 1404.05 4584.15 1404.05 4584.15 2475 4528.15 2475ZM4707.15 1365.04 4764.16 1365.04 4764.16 2475 4707.15 2475ZM4887.16 1360.04 4943.16 1360.04 4943.16 2475 4887.16 2475ZM5066.17 1360.04 5122.17 1360.04 5122.17 2475 5066.17 2475ZM5246.17 1437.05 5302.17 1437.05 5302.17 2475 5246.17 2475ZM5425.18 1912.06 5481.18 1912.06 5481.18 2475 5425.18 2475ZM5604.18 1913.06 5661.19 1913.06 5661.19 2475 5604.18 2475ZM5784.19 2080.07 5840.19 2080.07 5840.19 2475 5784.19 2475ZM5963.2 2106.07 6019.2 2106.07 6019.2 2475 5963.2 2475ZM6142.2 2106.07 6199.2 2106.07 6199.2 2475 6142.2 2475Z" fill="#FFC000"/></g><g clip-path="url(#clip3)"><path d="M4466.5 2474.5 6260.5 2474.5" stroke="#D9D9D9" stroke-width="3.4375" stroke-linejoin="round" stroke-miterlimit="10" fill="none" fill-rule="evenodd"/></g><g clip-path="url(#clip4)"><path d="M4556 1734.06 4736.16 1723 4915.16 1724.06 5094.17 1723.06 5274.17 1739.06 5453.18 1898.06 5632.18 1898.06 5812.19 2043.07 5991.2 2090.07 6171 2091" stroke="#C00000" stroke-width="10.3125" stroke-linecap="round" stroke-linejoin="round" stroke-miterlimit="10" fill="none"/></g><g clip-path="url(#clip5)"><path d="M4567.47 1733.97C4567.47 1740.04 4562.54 1744.97 4556.47 1744.97 4550.39 1744.97 4545.47 1740.04 4545.47 1733.97 4545.47 1727.89 4550.39 1722.97 4556.47 1722.97 4562.54 1722.97 4567.47 1727.89 4567.47 1733.97Z" stroke="#C00000" stroke-width="3.4375" stroke-linejoin="round" stroke-miterlimit="10" fill="#C00000"/><path d="M4746.47 1723.97C4746.47 1730.04 4741.54 1734.97 4735.47 1734.97 4729.39 1734.97 4724.47 1730.04 4724.47 1723.97 4724.47 1717.89 4729.39 1712.97 4735.47 1712.97 4741.54 1712.97 4746.47 1717.89 4746.47 1723.97Z" stroke="#C00000" stroke-width="3.4375" stroke-linejoin="round" stroke-miterlimit="10" fill="#C00000"/><path d="M4926.47 1723.97C4926.47 1730.04 4921.54 1734.97 4915.47 1734.97 4909.39 1734.97 4904.47 1730.04 4904.47 1723.97 4904.47 1717.89 4909.39 1712.97 4915.47 1712.97 4921.54 1712.97 4926.47 1717.89 4926.47 1723.97Z" stroke="#C00000" stroke-width="3.4375" stroke-linejoin="round" stroke-miterlimit="10" fill="#C00000"/><path d="M5105.47 1723.97C5105.47 1730.04 5100.54 1734.97 5094.47 1734.97 5088.39 1734.97 5083.47 1730.04 5083.47 1723.97 5083.47 1717.89 5088.39 1712.97 5094.47 1712.97 5100.54 1712.97 5105.47 1717.89 5105.47 1723.97Z" stroke="#C00000" stroke-width="3.4375" stroke-linejoin="round" stroke-miterlimit="10" fill="#C00000"/><path d="M5284.47 1738.97C5284.47 1745.04 5279.54 1749.97 5273.47 1749.97 5267.39 1749.97 5262.47 1745.04 5262.47 1738.97 5262.47 1732.89 5267.39 1727.97 5273.47 1727.97 5279.54 1727.97 5284.47 1732.89 5284.47 1738.97Z" stroke="#C00000" stroke-width="3.4375" stroke-linejoin="round" stroke-miterlimit="10" fill="#C00000"/><path d="M5464.47 1897.97C5464.47 1904.04 5459.54 1908.97 5453.47 1908.97 5447.39 1908.97 5442.47 1904.04 5442.47 1897.97 5442.47 1891.89 5447.39 1886.97 5453.47 1886.97 5459.54 1886.97 5464.47 1891.89 5464.47 1897.97Z" stroke="#C00000" stroke-width="3.4375" stroke-linejoin="round" stroke-miterlimit="10" fill="#C00000"/><path d="M5643.47 1898.97C5643.47 1905.04 5638.54 1909.97 5632.47 1909.97 5626.39 1909.97 5621.47 1905.04 5621.47 1898.97 5621.47 1892.89 5626.39 1887.97 5632.47 1887.97 5638.54 1887.97 5643.47 1892.89 5643.47 1898.97Z" stroke="#C00000" stroke-width="3.4375" stroke-linejoin="round" stroke-miterlimit="10" fill="#C00000"/><path d="M5823.47 2043.97C5823.47 2050.04 5818.54 2054.97 5812.47 2054.97 5806.39 2054.97 5801.47 2050.04 5801.47 2043.97 5801.47 2037.89 5806.39 2032.97 5812.47 2032.97 5818.54 2032.97 5823.47 2037.89 5823.47 2043.97Z" stroke="#C00000" stroke-width="3.4375" stroke-linejoin="round" stroke-miterlimit="10" fill="#C00000"/><path d="M6002.47 2090.97C6002.47 2097.04 5997.54 2101.97 5991.47 2101.97 5985.39 2101.97 5980.47 2097.04 5980.47 2090.97 5980.47 2084.89 5985.39 2079.97 5991.47 2079.97 5997.54 2079.97 6002.47 2084.89 6002.47 2090.97Z" stroke="#C00000" stroke-width="3.4375" stroke-linejoin="round" stroke-miterlimit="10" fill="#C00000"/><path d="M6181.47 2090.97C6181.47 2097.04 6176.54 2101.97 6170.47 2101.97 6164.39 2101.97 6159.47 2097.04 6159.47 2090.97 6159.47 2084.89 6164.39 2079.97 6170.47 2079.97 6176.54 2079.97 6181.47 2084.89 6181.47 2090.97Z" stroke="#C00000" stroke-width="3.4375" stroke-linejoin="round" stroke-miterlimit="10" fill="#C00000"/></g><g clip-path="url(#clip6)"><text fill="#595959" font-family="Calibri,Calibri_MSFontService,sans-serif" font-weight="400" font-size="55" transform="matrix(1 0 0 1 6311.52 2490)">0.0</text></g><g clip-path="url(#clip7)"><text fill="#595959" font-family="Calibri,Calibri_MSFontService,sans-serif" font-weight="400" font-size="55" transform="matrix(1 0 0 1 6311.52 2379)">10.0</text></g><g clip-path="url(#clip8)"><text fill="#595959" font-family="Calibri,Calibri_MSFontService,sans-serif" font-weight="400" font-size="55" transform="matrix(1 0 0 1 6311.52 2267)">20.0</text></g><g clip-path="url(#clip9)"><text fill="#595959" font-family="Calibri,Calibri_MSFontService,sans-serif" font-weight="400" font-size="55" transform="matrix(1 0 0 1 6311.52 2156)">30.0</text></g><g clip-path="url(#clip10)"><text fill="#595959" font-family="Calibri,Calibri_MSFontService,sans-serif" font-weight="400" font-size="55" transform="matrix(1 0 0 1 6311.52 2044)">40.0</text></g><g clip-path="url(#clip11)"><text fill="#595959" font-family="Calibri,Calibri_MSFontService,sans-serif" font-weight="400" font-size="55" transform="matrix(1 0 0 1 6311.52 1933)">50.0</text></g><g clip-path="url(#clip12)"><text fill="#595959" font-family="Calibri,Calibri_MSFontService,sans-serif" font-weight="400" font-size="55" transform="matrix(1 0 0 1 6311.52 1821)">60.0</text></g><g clip-path="url(#clip13)"><text fill="#595959" font-family="Calibri,Calibri_MSFontService,sans-serif" font-weight="400" font-size="55" transform="matrix(1 0 0 1 6311.52 1710)">70.0</text></g><g clip-path="url(#clip14)"><text fill="#595959" font-family="Calibri,Calibri_MSFontService,sans-serif" font-weight="400" font-size="55" transform="matrix(1 0 0 1 6311.52 1598)">80.0</text></g><g clip-path="url(#clip15)"><text fill="#595959" font-family="Calibri,Calibri_MSFontService,sans-serif" font-weight="400" font-size="55" transform="matrix(1 0 0 1 6311.52 1486)">90.0</text></g><g clip-path="url(#clip16)"><text fill="#595959" font-family="Calibri,Calibri_MSFontService,sans-serif" font-weight="400" font-size="55" transform="matrix(1 0 0 1 6311.52 1375)">100.0</text></g><g clip-path="url(#clip17)"><text fill="#595959" font-family="Calibri,Calibri_MSFontService,sans-serif" font-weight="400" font-size="55" transform="matrix(1 0 0 1 4318.07 2490)">0.00</text></g><g clip-path="url(#clip18)"><text fill="#595959" font-family="Calibri,Calibri_MSFontService,sans-serif" font-weight="400" font-size="55" transform="matrix(1 0 0 1 4290.21 2379)">10.00</text></g><g clip-path="url(#clip19)"><text fill="#595959" font-family="Calibri,Calibri_MSFontService,sans-serif" font-weight="400" font-size="55" transform="matrix(1 0 0 1 4290.21 2267)">20.00</text></g><g clip-path="url(#clip20)"><text fill="#595959" font-family="Calibri,Calibri_MSFontService,sans-serif" font-weight="400" font-size="55" transform="matrix(1 0 0 1 4290.21 2156)">30.00</text></g><g clip-path="url(#clip21)"><text fill="#595959" font-family="Calibri,Calibri_MSFontService,sans-serif" font-weight="400" font-size="55" transform="matrix(1 0 0 1 4290.21 2044)">40.00</text></g><g clip-path="url(#clip22)"><text fill="#595959" font-family="Calibri,Calibri_MSFontService,sans-serif" font-weight="400" font-size="55" transform="matrix(1 0 0 1 4290.21 1933)">50.00</text></g><g clip-path="url(#clip23)"><text fill="#595959" font-family="Calibri,Calibri_MSFontService,sans-serif" font-weight="400" font-size="55" transform="matrix(1 0 0 1 4290.21 1821)">60.00</text></g><g clip-path="url(#clip24)"><text fill="#595959" font-family="Calibri,Calibri_MSFontService,sans-serif" font-weight="400" font-size="55" transform="matrix(1 0 0 1 4290.21 1710)">70.00</text></g><g clip-path="url(#clip25)"><text fill="#595959" font-family="Calibri,Calibri_MSFontService,sans-serif" font-weight="400" font-size="55" transform="matrix(1 0 0 1 4290.21 1598)">80.00</text></g><g clip-path="url(#clip26)"><text fill="#595959" font-family="Calibri,Calibri_MSFontService,sans-serif" font-weight="400" font-size="55" transform="matrix(1 0 0 1 4290.21 1486)">90.00</text></g><g clip-path="url(#clip27)"><text fill="#595959" font-family="Calibri,Calibri_MSFontService,sans-serif" font-weight="400" font-size="55" transform="matrix(1 0 0 1 4262.34 1375)">100.00</text></g><g clip-path="url(#clip28)"><text fill="#595959" font-family="Calibri,Calibri_MSFontService,sans-serif" font-weight="400" font-size="55" transform="matrix(0.707107 -0.707107 0.707107 0.707107 4358.3 2758)">256x256x256</text></g><g clip-path="url(#clip29)"><text fill="#595959" font-family="Calibri,Calibri_MSFontService,sans-serif" font-weight="400" font-size="55" transform="matrix(0.707107 -0.707107 0.707107 0.707107 4537.69 2758)">512x256x256</text></g><g clip-path="url(#clip30)"><text fill="#595959" font-family="Calibri,Calibri_MSFontService,sans-serif" font-weight="400" font-size="55" transform="matrix(0.707107 -0.707107 0.707107 0.707107 4717.08 2758)">512x512x256</text></g><g clip-path="url(#clip31)"><text fill="#595959" font-family="Calibri,Calibri_MSFontService,sans-serif" font-weight="400" font-size="55" transform="matrix(0.707107 -0.707107 0.707107 0.707107 4896.47 2758)">512x512x512</text></g><g clip-path="url(#clip32)"><text fill="#595959" font-family="Calibri,Calibri_MSFontService,sans-serif" font-weight="400" font-size="55" transform="matrix(0.707107 -0.707107 0.707107 0.707107 5075.86 2758)">768x512x512</text></g><g clip-path="url(#clip33)"><text fill="#595959" font-family="Calibri,Calibri_MSFontService,sans-serif" font-weight="400" font-size="55" transform="matrix(0.707107 -0.707107 0.707107 0.707107 5255.25 2758)">768x768x512</text></g><g clip-path="url(#clip34)"><text fill="#595959" font-family="Calibri,Calibri_MSFontService,sans-serif" font-weight="400" font-size="55" transform="matrix(0.707107 -0.707107 0.707107 0.707107 5434.64 2758)">768x768x768</text></g><g clip-path="url(#clip35)"><text fill="#595959" font-family="Calibri,Calibri_MSFontService,sans-serif" font-weight="400" font-size="55" transform="matrix(0.707107 -0.707107 0.707107 0.707107 5594.33 2777)">1024x768x768</text></g><g clip-path="url(#clip36)"><text fill="#595959" font-family="Calibri,Calibri_MSFontService,sans-serif" font-weight="400" font-size="55" transform="matrix(0.707107 -0.707107 0.707107 0.707107 5754.02 2797)">1024x1024x768</text></g><g clip-path="url(#clip37)"><text fill="#595959" font-family="Calibri,Calibri_MSFontService,sans-serif" font-weight="400" font-size="55" transform="matrix(0.707107 -0.707107 0.707107 0.707107 5913.7 2817)">1024x1024x1024</text></g><g clip-path="url(#clip38)"><text fill="#595959" font-family="Calibri,Calibri_MSFontService,sans-serif" font-weight="400" font-size="64" transform="matrix(6.12323e-17 -1 1 6.12323e-17 6511.63 2114)">L2CacheHit (%)</text></g><g clip-path="url(#clip39)"><text fill="#595959" font-family="Calibri,Calibri_MSFontService,sans-serif" font-weight="400" font-size="64" transform="matrix(6.12323e-17 -1 1 6.12323e-17 4231.26 2224)">Fetch size efficiency (%)</text></g><g clip-path="url(#clip40)"><text fill="#595959" font-family="Calibri,Calibri_MSFontService,sans-serif" font-weight="400" font-size="64" transform="matrix(1 0 0 1 5049.05 2902)">Problem size (nx*ny*nz)</text></g><g clip-path="url(#clip41)"><rect x="4813" y="1233" width="88" height="35.0001" fill="#FFC000"/></g><g clip-path="url(#clip42)"><text fill="#595959" font-family="Calibri,Calibri_MSFontService,sans-serif" font-weight="400" font-size="64" transform="matrix(1 0 0 1 4910.52 1269)">Fetch size efficiency</text></g><g clip-path="url(#clip43)"><path d="M5511 1250 5599 1250" stroke="#C00000" stroke-width="10.3125" stroke-linecap="round" stroke-linejoin="round" stroke-miterlimit="10" fill="none" fill-rule="evenodd"/></g><g clip-path="url(#clip44)"><path d="M5566.02 1250C5566.02 1256.07 5561.31 1261 5555.5 1261 5549.69 1261 5544.98 1256.07 5544.98 1250 5544.98 1243.92 5549.69 1239 5555.5 1239 5561.31 1239 5566.02 1243.92 5566.02 1250Z" stroke="#C00000" stroke-width="3.4375" stroke-linejoin="round" stroke-miterlimit="10" fill="#C00000"/></g><g clip-path="url(#clip45)"><text fill="#595959" font-family="Calibri,Calibri_MSFontService,sans-serif" font-weight="400" font-size="64" transform="matrix(1 0 0 1 5608.71 1269)">L2CacheHit</text></g></g></svg>