<svg width="2493" height="1805" xmlns="http://www.w3.org/2000/svg" xmlns:xlink="http://www.w3.org/1999/xlink" xml:space="preserve" overflow="hidden"><defs><clipPath id="clip0"><rect x="7103" y="1164" width="2493" height="1805"/></clipPath><clipPath id="clip1"><rect x="7103" y="1165" width="2491" height="1801"/></clipPath><clipPath id="clip2"><rect x="7103" y="1165" width="2491" height="1801"/></clipPath><clipPath id="clip3"><rect x="7103" y="1165" width="2491" height="1801"/></clipPath><clipPath id="clip4"><rect x="7103" y="1165" width="2491" height="1801"/></clipPath><clipPath id="clip5"><rect x="7103" y="1165" width="2491" height="1801"/></clipPath><clipPath id="clip6"><rect x="7387" y="1354" width="2132" height="1364"/></clipPath><clipPath id="clip7"><rect x="7103" y="1165" width="2491" height="1801"/></clipPath><clipPath id="clip8"><rect x="7387" y="1354" width="2132" height="1364"/></clipPath><clipPath id="clip9"><rect x="7103" y="1165" width="2491" height="1801"/></clipPath><clipPath id="clip10"><rect x="7103" y="1165" width="2491" height="1801"/></clipPath><clipPath id="clip11"><rect x="7103" y="1165" width="2491" height="1801"/></clipPath><clipPath id="clip12"><rect x="7103" y="1165" width="2491" height="1801"/></clipPath><clipPath id="clip13"><rect x="7103" y="1165" width="2491" height="1801"/></clipPath><clipPath id="clip14"><rect x="7103" y="1165" width="2491" height="1801"/></clipPath><clipPath id="clip15"><rect x="7103" y="1165" width="2491" height="1801"/></clipPath><clipPath id="clip16"><rect x="7103" y="1165" width="2491" height="1801"/></clipPath><clipPath id="clip17"><rect x="7103" y="1165" width="2491" height="1801"/></clipPath><clipPath id="clip18"><rect x="7103" y="1165" width="2491" height="1801"/></clipPath><clipPath id="clip19"><rect x="7103" y="1165" width="2491" height="1801"/></clipPath><clipPath id="clip20"><rect x="7103" y="1165" width="2491" height="1801"/></clipPath><clipPath id="clip21"><rect x="7103" y="1165" width="2491" height="1801"/></clipPath><clipPath id="clip22"><rect x="7103" y="1165" width="2491" height="1801"/></clipPath><clipPath id="clip23"><rect x="7103" y="1165" width="2491" height="1801"/></clipPath><clipPath id="clip24"><rect x="7103" y="1165" width="2491" height="1801"/></clipPath><clipPath id="clip25"><rect x="7103" y="1165" width="2491" height="1801"/></clipPath><clipPath id="clip26"><rect x="7103" y="1165" width="2491" height="1801"/></clipPath><clipPath id="clip27"><rect x="7103" y="1165" width="2491" height="1801"/></clipPath><clipPath id="clip28"><rect x="7103" y="1165" width="2491" height="1801"/></clipPath><clipPath id="clip29"><rect x="7103" y="1165" width="2491" height="1801"/></clipPath><clipPath id="clip30"><rect x="7103" y="1165" width="2491" height="1801"/></clipPath><clipPath id="clip31"><rect x="7103" y="1165" width="2491" height="1801"/></clipPath><clipPath id="clip32"><rect x="7103" y="1165" width="2491" height="1801"/></clipPath><clipPath id="clip33"><rect x="7103" y="1165" width="2491" height="1801"/></clipPath><clipPath id="clip34"><rect x="7103" y="1165" width="2491" height="1801"/></clipPath><clipPath id="clip35"><rect x="7103" y="1165" width="2491" height="1801"/></clipPath><clipPath id="clip36"><rect x="7103" y="1165" width="2491" height="1801"/></clipPath><clipPath id="clip37"><rect x="7103" y="1165" width="2491" height="1801"/></clipPath><clipPath id="clip38"><rect x="7103" y="1165" width="2491" height="1801"/></clipPath><clipPath id="clip39"><rect x="7103" y="1165" width="2491" height="1801"/></clipPath><clipPath id="clip40"><rect x="7103" y="1165" width="2491" height="1801"/></clipPath><clipPath id="clip41"><rect x="7103" y="1165" width="2491" height="1801"/></clipPath><clipPath id="clip42"><rect x="7103" y="1165" width="2491" height="1801"/></clipPath></defs><g clip-path="url(#clip0)" transform="translate(-7103 -1164)"><rect x="7104" y="1165" width="2490" height="1802" fill="#FFFFFF"/><g clip-path="url(#clip1)"><path d="M7387.5 2563.58 9515.5 2563.58M7387.5 2412.58 9515.5 2412.58M7387.5 2261.57 9515.5 2261.57M7387.5 2110.57 9515.5 2110.57M7387.5 1959.56 9515.5 1959.56M7387.5 1807.56 9515.5 1807.56M7387.5 1656.55 9515.5 1656.55M7387.5 1505.55 9515.5 1505.55M7387.5 1354.5 9515.5 1354.5" stroke="#D9D9D9" stroke-width="3.4375" stroke-linejoin="round" stroke-miterlimit="10" fill="none"/></g><g clip-path="url(#clip2)"><path d="M7539.75 1354.5 7539.75 2715.5M7691.75 1354.5 7691.75 2715.5M7843.76 1354.5 7843.76 2715.5M7995.76 1354.5 7995.76 2715.5M8147.77 1354.5 8147.77 2715.5M8299.77 1354.5 8299.77 2715.5M8451.78 1354.5 8451.78 2715.5M8603.78 1354.5 8603.78 2715.5M8755.79 1354.5 8755.79 2715.5M8907.79 1354.5 8907.79 2715.5M9059.8 1354.5 9059.8 2715.5M9211.8 1354.5 9211.8 2715.5M9363.81 1354.5 9363.81 2715.5M9515.5 1354.5 9515.5 2715.5" stroke="#D9D9D9" stroke-width="3.4375" stroke-linejoin="round" stroke-miterlimit="10" fill="none"/></g><g clip-path="url(#clip3)"><path d="M0 0 0.000360892 1361" stroke="#BFBFBF" stroke-width="3.4375" stroke-linejoin="round" stroke-miterlimit="10" fill="none" fill-rule="evenodd" transform="matrix(1 0 0 -1 7387.5 2715.5)"/></g><g clip-path="url(#clip4)"><path d="M7387.5 2715.5 9515.5 2715.5" stroke="#BFBFBF" stroke-width="3.4375" stroke-linejoin="round" stroke-miterlimit="10" fill="none" fill-rule="evenodd"/></g><g clip-path="url(#clip5)"><path d="M7387.5 2702.5 7387.5 2715.5M7463.75 2702.5 7463.75 2715.5M7539.75 2702.5 7539.75 2715.5M7615.75 2702.5 7615.75 2715.5M7691.75 2702.5 7691.75 2715.5M7767.75 2702.5 7767.75 2715.5M7843.76 2702.5 7843.76 2715.5M7919.76 2702.5 7919.76 2715.5M7995.76 2702.5 7995.76 2715.5M8071.77 2702.5 8071.77 2715.5M8147.77 2702.5 8147.77 2715.5M8223.77 2702.5 8223.77 2715.5M8299.77 2702.5 8299.77 2715.5M8375.78 2702.5 8375.78 2715.5M8451.78 2702.5 8451.78 2715.5M8527.78 2702.5 8527.78 2715.5M8603.78 2702.5 8603.78 2715.5M8679.79 2702.5 8679.79 2715.5M8755.79 2702.5 8755.79 2715.5M8831.79 2702.5 8831.79 2715.5M8907.79 2702.5 8907.79 2715.5M8983.79 2702.5 8983.79 2715.5M9059.8 2702.5 9059.8 2715.5M9135.8 2702.5 9135.8 2715.5M9211.8 2702.5 9211.8 2715.5M9287.8 2702.5 9287.8 2715.5M9363.81 2702.5 9363.81 2715.5M9439.81 2702.5 9439.81 2715.5M9515.5 2702.5 9515.5 2715.5" stroke="#BFBFBF" stroke-width="3.4375" stroke-linejoin="round" stroke-miterlimit="10" fill="none"/></g><g clip-path="url(#clip6)"><path d="M7402.5 2090.57 7481.75 2085.57 7561.75 2085.57 7641.75 2084.57 7720.75 2080.57 7800.76 2086.57 7880.76 2081.57 7959.76 2079.57 8039.76 2072.5 8119.77 2079.57 8199.77 2079.57 8278.77 2094.57 8358.77 2202.57 8438.78 2328.58 8517.78 2350.58 8597.78 2355.58 8677.79 2357.58 8756.79 2358.58 8836.79 2358.58 8916.79 2358.58 8996.79 2357.58 9075.8 2359.58 9155.8 2359.58 9235.8 2358.58 9314.81 2358.58 9394.81 2358.58 9474.5 2359.5" stroke="#4472C4" stroke-width="6.875" stroke-linecap="round" stroke-linejoin="round" stroke-miterlimit="10" fill="none"/></g><g clip-path="url(#clip7)"><path d="M7413.09 2090.81C7413.09 2096.89 7408.17 2101.81 7402.09 2101.81 7396.02 2101.81 7391.09 2096.89 7391.09 2090.81 7391.09 2084.74 7396.02 2079.81 7402.09 2079.81 7408.17 2079.81 7413.09 2084.74 7413.09 2090.81Z" stroke="#4472C4" stroke-width="3.4375" stroke-linejoin="round" stroke-miterlimit="10" fill="#4472C4"/><path d="M7493.09 2085.81C7493.09 2091.89 7488.17 2096.81 7482.09 2096.81 7476.02 2096.81 7471.09 2091.89 7471.09 2085.81 7471.09 2079.74 7476.02 2074.81 7482.09 2074.81 7488.17 2074.81 7493.09 2079.74 7493.09 2085.81Z" stroke="#4472C4" stroke-width="3.4375" stroke-linejoin="round" stroke-miterlimit="10" fill="#4472C4"/><path d="M7572.09 2085.81C7572.09 2091.89 7567.17 2096.81 7561.09 2096.81 7555.02 2096.81 7550.09 2091.89 7550.09 2085.81 7550.09 2079.74 7555.02 2074.81 7561.09 2074.81 7567.17 2074.81 7572.09 2079.74 7572.09 2085.81Z" stroke="#4472C4" stroke-width="3.4375" stroke-linejoin="round" stroke-miterlimit="10" fill="#4472C4"/><path d="M7652.09 2085.81C7652.09 2091.89 7647.17 2096.81 7641.09 2096.81 7635.02 2096.81 7630.09 2091.89 7630.09 2085.81 7630.09 2079.74 7635.02 2074.81 7641.09 2074.81 7647.17 2074.81 7652.09 2079.74 7652.09 2085.81Z" stroke="#4472C4" stroke-width="3.4375" stroke-linejoin="round" stroke-miterlimit="10" fill="#4472C4"/><path d="M7732.09 2080.81C7732.09 2086.89 7727.17 2091.81 7721.09 2091.81 7715.02 2091.81 7710.09 2086.89 7710.09 2080.81 7710.09 2074.74 7715.02 2069.81 7721.09 2069.81 7727.17 2069.81 7732.09 2074.74 7732.09 2080.81Z" stroke="#4472C4" stroke-width="3.4375" stroke-linejoin="round" stroke-miterlimit="10" fill="#4472C4"/><path d="M7811.09 2086.81C7811.09 2092.89 7806.17 2097.81 7800.09 2097.81 7794.02 2097.81 7789.09 2092.89 7789.09 2086.81 7789.09 2080.74 7794.02 2075.81 7800.09 2075.81 7806.17 2075.81 7811.09 2080.74 7811.09 2086.81Z" stroke="#4472C4" stroke-width="3.4375" stroke-linejoin="round" stroke-miterlimit="10" fill="#4472C4"/><path d="M7891.09 2082.81C7891.09 2088.89 7886.17 2093.81 7880.09 2093.81 7874.02 2093.81 7869.09 2088.89 7869.09 2082.81 7869.09 2076.74 7874.02 2071.81 7880.09 2071.81 7886.17 2071.81 7891.09 2076.74 7891.09 2082.81Z" stroke="#4472C4" stroke-width="3.4375" stroke-linejoin="round" stroke-miterlimit="10" fill="#4472C4"/><path d="M7971.09 2079.81C7971.09 2085.89 7966.17 2090.81 7960.09 2090.81 7954.02 2090.81 7949.09 2085.89 7949.09 2079.81 7949.09 2073.74 7954.02 2068.81 7960.09 2068.81 7966.17 2068.81 7971.09 2073.74 7971.09 2079.81Z" stroke="#4472C4" stroke-width="3.4375" stroke-linejoin="round" stroke-miterlimit="10" fill="#4472C4"/><path d="M8050.09 2072.81C8050.09 2078.89 8045.17 2083.81 8039.09 2083.81 8033.02 2083.81 8028.09 2078.89 8028.09 2072.81 8028.09 2066.74 8033.02 2061.81 8039.09 2061.81 8045.17 2061.81 8050.09 2066.74 8050.09 2072.81Z" stroke="#4472C4" stroke-width="3.4375" stroke-linejoin="round" stroke-miterlimit="10" fill="#4472C4"/><path d="M8130.09 2079.81C8130.09 2085.89 8125.17 2090.81 8119.09 2090.81 8113.02 2090.81 8108.09 2085.89 8108.09 2079.81 8108.09 2073.74 8113.02 2068.81 8119.09 2068.81 8125.17 2068.81 8130.09 2073.74 8130.09 2079.81Z" stroke="#4472C4" stroke-width="3.4375" stroke-linejoin="round" stroke-miterlimit="10" fill="#4472C4"/><path d="M8210.09 2079.81C8210.09 2085.89 8205.17 2090.81 8199.09 2090.81 8193.02 2090.81 8188.09 2085.89 8188.09 2079.81 8188.09 2073.74 8193.02 2068.81 8199.09 2068.81 8205.17 2068.81 8210.09 2073.74 8210.09 2079.81Z" stroke="#4472C4" stroke-width="3.4375" stroke-linejoin="round" stroke-miterlimit="10" fill="#4472C4"/><path d="M8290.09 2094.81C8290.09 2100.89 8285.17 2105.81 8279.09 2105.81 8273.02 2105.81 8268.09 2100.89 8268.09 2094.81 8268.09 2088.74 8273.02 2083.81 8279.09 2083.81 8285.17 2083.81 8290.09 2088.74 8290.09 2094.81Z" stroke="#4472C4" stroke-width="3.4375" stroke-linejoin="round" stroke-miterlimit="10" fill="#4472C4"/><path d="M8369.09 2203.81C8369.09 2209.89 8364.17 2214.81 8358.09 2214.81 8352.02 2214.81 8347.09 2209.89 8347.09 2203.81 8347.09 2197.74 8352.02 2192.81 8358.09 2192.81 8364.17 2192.81 8369.09 2197.74 8369.09 2203.81Z" stroke="#4472C4" stroke-width="3.4375" stroke-linejoin="round" stroke-miterlimit="10" fill="#4472C4"/><path d="M8449.09 2328.81C8449.09 2334.89 8444.17 2339.81 8438.09 2339.81 8432.02 2339.81 8427.09 2334.89 8427.09 2328.81 8427.09 2322.74 8432.02 2317.81 8438.09 2317.81 8444.17 2317.81 8449.09 2322.74 8449.09 2328.81Z" stroke="#4472C4" stroke-width="3.4375" stroke-linejoin="round" stroke-miterlimit="10" fill="#4472C4"/><path d="M8529.09 2350.81C8529.09 2356.89 8524.17 2361.81 8518.09 2361.81 8512.02 2361.81 8507.09 2356.89 8507.09 2350.81 8507.09 2344.74 8512.02 2339.81 8518.09 2339.81 8524.17 2339.81 8529.09 2344.74 8529.09 2350.81Z" stroke="#4472C4" stroke-width="3.4375" stroke-linejoin="round" stroke-miterlimit="10" fill="#4472C4"/><path d="M8608.09 2355.81C8608.09 2361.89 8603.17 2366.81 8597.09 2366.81 8591.02 2366.81 8586.09 2361.89 8586.09 2355.81 8586.09 2349.74 8591.02 2344.81 8597.09 2344.81 8603.17 2344.81 8608.09 2349.74 8608.09 2355.81Z" stroke="#4472C4" stroke-width="3.4375" stroke-linejoin="round" stroke-miterlimit="10" fill="#4472C4"/><path d="M8688.09 2357.81C8688.09 2363.89 8683.17 2368.81 8677.09 2368.81 8671.02 2368.81 8666.09 2363.89 8666.09 2357.81 8666.09 2351.74 8671.02 2346.81 8677.09 2346.81 8683.17 2346.81 8688.09 2351.74 8688.09 2357.81Z" stroke="#4472C4" stroke-width="3.4375" stroke-linejoin="round" stroke-miterlimit="10" fill="#4472C4"/><path d="M8768.09 2358.81C8768.09 2364.89 8763.17 2369.81 8757.09 2369.81 8751.02 2369.81 8746.09 2364.89 8746.09 2358.81 8746.09 2352.74 8751.02 2347.81 8757.09 2347.81 8763.17 2347.81 8768.09 2352.74 8768.09 2358.81Z" stroke="#4472C4" stroke-width="3.4375" stroke-linejoin="round" stroke-miterlimit="10" fill="#4472C4"/><path d="M8847.09 2358.81C8847.09 2364.89 8842.17 2369.81 8836.09 2369.81 8830.02 2369.81 8825.09 2364.89 8825.09 2358.81 8825.09 2352.74 8830.02 2347.81 8836.09 2347.81 8842.17 2347.81 8847.09 2352.74 8847.09 2358.81Z" stroke="#4472C4" stroke-width="3.4375" stroke-linejoin="round" stroke-miterlimit="10" fill="#4472C4"/><path d="M8927.09 2359.81C8927.09 2365.89 8922.17 2370.81 8916.09 2370.81 8910.02 2370.81 8905.09 2365.89 8905.09 2359.81 8905.09 2353.74 8910.02 2348.81 8916.09 2348.81 8922.17 2348.81 8927.09 2353.74 8927.09 2359.81Z" stroke="#4472C4" stroke-width="3.4375" stroke-linejoin="round" stroke-miterlimit="10" fill="#4472C4"/><path d="M9007.09 2357.81C9007.09 2363.89 9002.17 2368.81 8996.09 2368.81 8990.02 2368.81 8985.09 2363.89 8985.09 2357.81 8985.09 2351.74 8990.02 2346.81 8996.09 2346.81 9002.17 2346.81 9007.09 2351.74 9007.09 2357.81Z" stroke="#4472C4" stroke-width="3.4375" stroke-linejoin="round" stroke-miterlimit="10" fill="#4472C4"/><path d="M9087.09 2359.81C9087.09 2365.89 9082.17 2370.81 9076.09 2370.81 9070.02 2370.81 9065.09 2365.89 9065.09 2359.81 9065.09 2353.74 9070.02 2348.81 9076.09 2348.81 9082.17 2348.81 9087.09 2353.74 9087.09 2359.81Z" stroke="#4472C4" stroke-width="3.4375" stroke-linejoin="round" stroke-miterlimit="10" fill="#4472C4"/><path d="M9166.09 2359.81C9166.09 2365.89 9161.17 2370.81 9155.09 2370.81 9149.02 2370.81 9144.09 2365.89 9144.09 2359.81 9144.09 2353.74 9149.02 2348.81 9155.09 2348.81 9161.17 2348.81 9166.09 2353.74 9166.09 2359.81Z" stroke="#4472C4" stroke-width="3.4375" stroke-linejoin="round" stroke-miterlimit="10" fill="#4472C4"/><path d="M9246.09 2358.81C9246.09 2364.89 9241.17 2369.81 9235.09 2369.81 9229.02 2369.81 9224.09 2364.89 9224.09 2358.81 9224.09 2352.74 9229.02 2347.81 9235.09 2347.81 9241.17 2347.81 9246.09 2352.74 9246.09 2358.81Z" stroke="#4472C4" stroke-width="3.4375" stroke-linejoin="round" stroke-miterlimit="10" fill="#4472C4"/><path d="M9326.09 2358.81C9326.09 2364.89 9321.17 2369.81 9315.09 2369.81 9309.02 2369.81 9304.09 2364.89 9304.09 2358.81 9304.09 2352.74 9309.02 2347.81 9315.09 2347.81 9321.17 2347.81 9326.09 2352.74 9326.09 2358.81Z" stroke="#4472C4" stroke-width="3.4375" stroke-linejoin="round" stroke-miterlimit="10" fill="#4472C4"/><path d="M9405.09 2358.81C9405.09 2364.89 9400.17 2369.81 9394.09 2369.81 9388.02 2369.81 9383.09 2364.89 9383.09 2358.81 9383.09 2352.74 9388.02 2347.81 9394.09 2347.81 9400.17 2347.81 9405.09 2352.74 9405.09 2358.81Z" stroke="#4472C4" stroke-width="3.4375" stroke-linejoin="round" stroke-miterlimit="10" fill="#4472C4"/><path d="M9485.09 2359.81C9485.09 2365.89 9480.17 2370.81 9474.09 2370.81 9468.02 2370.81 9463.09 2365.89 9463.09 2359.81 9463.09 2353.74 9468.02 2348.81 9474.09 2348.81 9480.17 2348.81 9485.09 2353.74 9485.09 2359.81Z" stroke="#4472C4" stroke-width="3.4375" stroke-linejoin="round" stroke-miterlimit="10" fill="#4472C4"/></g><g clip-path="url(#clip8)"><path d="M7402.5 1564.55 7481.75 1543.55 7561.75 1521.55 7641.75 1520.55 7720.75 1509.55 7800.76 1501.55 7880.76 1507.55 7959.76 1505.55 8039.76 1499.5 8119.77 1541.55 8199.77 1597.55 8278.77 1646.55 8358.77 1780.56 8438.78 2006.57 8517.78 2054.57 8597.78 2067.57 8677.79 2068.57 8756.79 2068.57 8836.79 2066.57 8916.79 2067.57 8996.79 2069.5 9075.8 2066.57 9155.8 2067.57 9235.8 2067.57 9314.81 2066.57 9394.81 2067.57 9474.5 2068.57" stroke="#ED7D31" stroke-width="6.875" stroke-linecap="round" stroke-linejoin="round" stroke-miterlimit="10" fill="none"/></g><g clip-path="url(#clip9)"><path d="M7413.09 1564.81C7413.09 1570.89 7408.17 1575.81 7402.09 1575.81 7396.02 1575.81 7391.09 1570.89 7391.09 1564.81 7391.09 1558.74 7396.02 1553.81 7402.09 1553.81 7408.17 1553.81 7413.09 1558.74 7413.09 1564.81Z" stroke="#ED7D31" stroke-width="3.4375" stroke-linejoin="round" stroke-miterlimit="10" fill="#ED7D31"/><path d="M7493.09 1543.81C7493.09 1549.89 7488.17 1554.81 7482.09 1554.81 7476.02 1554.81 7471.09 1549.89 7471.09 1543.81 7471.09 1537.74 7476.02 1532.81 7482.09 1532.81 7488.17 1532.81 7493.09 1537.74 7493.09 1543.81Z" stroke="#ED7D31" stroke-width="3.4375" stroke-linejoin="round" stroke-miterlimit="10" fill="#ED7D31"/><path d="M7572.09 1521.81C7572.09 1527.89 7567.17 1532.81 7561.09 1532.81 7555.02 1532.81 7550.09 1527.89 7550.09 1521.81 7550.09 1515.74 7555.02 1510.81 7561.09 1510.81 7567.17 1510.81 7572.09 1515.74 7572.09 1521.81Z" stroke="#ED7D31" stroke-width="3.4375" stroke-linejoin="round" stroke-miterlimit="10" fill="#ED7D31"/><path d="M7652.09 1520.81C7652.09 1526.89 7647.17 1531.81 7641.09 1531.81 7635.02 1531.81 7630.09 1526.89 7630.09 1520.81 7630.09 1514.74 7635.02 1509.81 7641.09 1509.81 7647.17 1509.81 7652.09 1514.74 7652.09 1520.81Z" stroke="#ED7D31" stroke-width="3.4375" stroke-linejoin="round" stroke-miterlimit="10" fill="#ED7D31"/><path d="M7732.09 1509.81C7732.09 1515.89 7727.17 1520.81 7721.09 1520.81 7715.02 1520.81 7710.09 1515.89 7710.09 1509.81 7710.09 1503.74 7715.02 1498.81 7721.09 1498.81 7727.17 1498.81 7732.09 1503.74 7732.09 1509.81Z" stroke="#ED7D31" stroke-width="3.4375" stroke-linejoin="round" stroke-miterlimit="10" fill="#ED7D31"/><path d="M7811.09 1501.81C7811.09 1507.89 7806.17 1512.81 7800.09 1512.81 7794.02 1512.81 7789.09 1507.89 7789.09 1501.81 7789.09 1495.74 7794.02 1490.81 7800.09 1490.81 7806.17 1490.81 7811.09 1495.74 7811.09 1501.81Z" stroke="#ED7D31" stroke-width="3.4375" stroke-linejoin="round" stroke-miterlimit="10" fill="#ED7D31"/><path d="M7891.09 1507.81C7891.09 1513.89 7886.17 1518.81 7880.09 1518.81 7874.02 1518.81 7869.09 1513.89 7869.09 1507.81 7869.09 1501.74 7874.02 1496.81 7880.09 1496.81 7886.17 1496.81 7891.09 1501.74 7891.09 1507.81Z" stroke="#ED7D31" stroke-width="3.4375" stroke-linejoin="round" stroke-miterlimit="10" fill="#ED7D31"/><path d="M7971.09 1505.81C7971.09 1511.89 7966.17 1516.81 7960.09 1516.81 7954.02 1516.81 7949.09 1511.89 7949.09 1505.81 7949.09 1499.74 7954.02 1494.81 7960.09 1494.81 7966.17 1494.81 7971.09 1499.74 7971.09 1505.81Z" stroke="#ED7D31" stroke-width="3.4375" stroke-linejoin="round" stroke-miterlimit="10" fill="#ED7D31"/><path d="M8050.09 1499.81C8050.09 1505.89 8045.17 1510.81 8039.09 1510.81 8033.02 1510.81 8028.09 1505.89 8028.09 1499.81 8028.09 1493.74 8033.02 1488.81 8039.09 1488.81 8045.17 1488.81 8050.09 1493.74 8050.09 1499.81Z" stroke="#ED7D31" stroke-width="3.4375" stroke-linejoin="round" stroke-miterlimit="10" fill="#ED7D31"/><path d="M8130.09 1541.81C8130.09 1547.89 8125.17 1552.81 8119.09 1552.81 8113.02 1552.81 8108.09 1547.89 8108.09 1541.81 8108.09 1535.74 8113.02 1530.81 8119.09 1530.81 8125.17 1530.81 8130.09 1535.74 8130.09 1541.81Z" stroke="#ED7D31" stroke-width="3.4375" stroke-linejoin="round" stroke-miterlimit="10" fill="#ED7D31"/><path d="M8210.09 1598.81C8210.09 1604.89 8205.17 1609.81 8199.09 1609.81 8193.02 1609.81 8188.09 1604.89 8188.09 1598.81 8188.09 1592.74 8193.02 1587.81 8199.09 1587.81 8205.17 1587.81 8210.09 1592.74 8210.09 1598.81Z" stroke="#ED7D31" stroke-width="3.4375" stroke-linejoin="round" stroke-miterlimit="10" fill="#ED7D31"/><path d="M8290.09 1647.81C8290.09 1653.89 8285.17 1658.81 8279.09 1658.81 8273.02 1658.81 8268.09 1653.89 8268.09 1647.81 8268.09 1641.74 8273.02 1636.81 8279.09 1636.81 8285.17 1636.81 8290.09 1641.74 8290.09 1647.81Z" stroke="#ED7D31" stroke-width="3.4375" stroke-linejoin="round" stroke-miterlimit="10" fill="#ED7D31"/><path d="M8369.09 1780.81C8369.09 1786.89 8364.17 1791.81 8358.09 1791.81 8352.02 1791.81 8347.09 1786.89 8347.09 1780.81 8347.09 1774.74 8352.02 1769.81 8358.09 1769.81 8364.17 1769.81 8369.09 1774.74 8369.09 1780.81Z" stroke="#ED7D31" stroke-width="3.4375" stroke-linejoin="round" stroke-miterlimit="10" fill="#ED7D31"/><path d="M8449.09 2006.81C8449.09 2012.89 8444.17 2017.81 8438.09 2017.81 8432.02 2017.81 8427.09 2012.89 8427.09 2006.81 8427.09 2000.74 8432.02 1995.81 8438.09 1995.81 8444.17 1995.81 8449.09 2000.74 8449.09 2006.81Z" stroke="#ED7D31" stroke-width="3.4375" stroke-linejoin="round" stroke-miterlimit="10" fill="#ED7D31"/><path d="M8529.09 2054.81C8529.09 2060.89 8524.17 2065.81 8518.09 2065.81 8512.02 2065.81 8507.09 2060.89 8507.09 2054.81 8507.09 2048.74 8512.02 2043.81 8518.09 2043.81 8524.17 2043.81 8529.09 2048.74 8529.09 2054.81Z" stroke="#ED7D31" stroke-width="3.4375" stroke-linejoin="round" stroke-miterlimit="10" fill="#ED7D31"/><path d="M8608.09 2067.81C8608.09 2073.89 8603.17 2078.81 8597.09 2078.81 8591.02 2078.81 8586.09 2073.89 8586.09 2067.81 8586.09 2061.74 8591.02 2056.81 8597.09 2056.81 8603.17 2056.81 8608.09 2061.74 8608.09 2067.81Z" stroke="#ED7D31" stroke-width="3.4375" stroke-linejoin="round" stroke-miterlimit="10" fill="#ED7D31"/><path d="M8688.09 2068.81C8688.09 2074.89 8683.17 2079.81 8677.09 2079.81 8671.02 2079.81 8666.09 2074.89 8666.09 2068.81 8666.09 2062.74 8671.02 2057.81 8677.09 2057.81 8683.17 2057.81 8688.09 2062.74 8688.09 2068.81Z" stroke="#ED7D31" stroke-width="3.4375" stroke-linejoin="round" stroke-miterlimit="10" fill="#ED7D31"/><path d="M8768.09 2068.81C8768.09 2074.89 8763.17 2079.81 8757.09 2079.81 8751.02 2079.81 8746.09 2074.89 8746.09 2068.81 8746.09 2062.74 8751.02 2057.81 8757.09 2057.81 8763.17 2057.81 8768.09 2062.74 8768.09 2068.81Z" stroke="#ED7D31" stroke-width="3.4375" stroke-linejoin="round" stroke-miterlimit="10" fill="#ED7D31"/><path d="M8847.09 2066.81C8847.09 2072.89 8842.17 2077.81 8836.09 2077.81 8830.02 2077.81 8825.09 2072.89 8825.09 2066.81 8825.09 2060.74 8830.02 2055.81 8836.09 2055.81 8842.17 2055.81 8847.09 2060.74 8847.09 2066.81Z" stroke="#ED7D31" stroke-width="3.4375" stroke-linejoin="round" stroke-miterlimit="10" fill="#ED7D31"/><path d="M8927.09 2067.81C8927.09 2073.89 8922.17 2078.81 8916.09 2078.81 8910.02 2078.81 8905.09 2073.89 8905.09 2067.81 8905.09 2061.74 8910.02 2056.81 8916.09 2056.81 8922.17 2056.81 8927.09 2061.74 8927.09 2067.81Z" stroke="#ED7D31" stroke-width="3.4375" stroke-linejoin="round" stroke-miterlimit="10" fill="#ED7D31"/><path d="M9007.09 2069.81C9007.09 2075.89 9002.17 2080.81 8996.09 2080.81 8990.02 2080.81 8985.09 2075.89 8985.09 2069.81 8985.09 2063.74 8990.02 2058.81 8996.09 2058.81 9002.17 2058.81 9007.09 2063.74 9007.09 2069.81Z" stroke="#ED7D31" stroke-width="3.4375" stroke-linejoin="round" stroke-miterlimit="10" fill="#ED7D31"/><path d="M9087.09 2066.81C9087.09 2072.89 9082.17 2077.81 9076.09 2077.81 9070.02 2077.81 9065.09 2072.89 9065.09 2066.81 9065.09 2060.74 9070.02 2055.81 9076.09 2055.81 9082.17 2055.81 9087.09 2060.74 9087.09 2066.81Z" stroke="#ED7D31" stroke-width="3.4375" stroke-linejoin="round" stroke-miterlimit="10" fill="#ED7D31"/><path d="M9166.09 2067.81C9166.09 2073.89 9161.17 2078.81 9155.09 2078.81 9149.02 2078.81 9144.09 2073.89 9144.09 2067.81 9144.09 2061.74 9149.02 2056.81 9155.09 2056.81 9161.17 2056.81 9166.09 2061.74 9166.09 2067.81Z" stroke="#ED7D31" stroke-width="3.4375" stroke-linejoin="round" stroke-miterlimit="10" fill="#ED7D31"/><path d="M9246.09 2067.81C9246.09 2073.89 9241.17 2078.81 9235.09 2078.81 9229.02 2078.81 9224.09 2073.89 9224.09 2067.81 9224.09 2061.74 9229.02 2056.81 9235.09 2056.81 9241.17 2056.81 9246.09 2061.74 9246.09 2067.81Z" stroke="#ED7D31" stroke-width="3.4375" stroke-linejoin="round" stroke-miterlimit="10" fill="#ED7D31"/><path d="M9326.09 2066.81C9326.09 2072.89 9321.17 2077.81 9315.09 2077.81 9309.02 2077.81 9304.09 2072.89 9304.09 2066.81 9304.09 2060.74 9309.02 2055.81 9315.09 2055.81 9321.17 2055.81 9326.09 2060.74 9326.09 2066.81Z" stroke="#ED7D31" stroke-width="3.4375" stroke-linejoin="round" stroke-miterlimit="10" fill="#ED7D31"/><path d="M9405.09 2067.81C9405.09 2073.89 9400.17 2078.81 9394.09 2078.81 9388.02 2078.81 9383.09 2073.89 9383.09 2067.81 9383.09 2061.74 9388.02 2056.81 9394.09 2056.81 9400.17 2056.81 9405.09 2061.74 9405.09 2067.81Z" stroke="#ED7D31" stroke-width="3.4375" stroke-linejoin="round" stroke-miterlimit="10" fill="#ED7D31"/><path d="M9485.09 2068.81C9485.09 2074.89 9480.17 2079.81 9474.09 2079.81 9468.02 2079.81 9463.09 2074.89 9463.09 2068.81 9463.09 2062.74 9468.02 2057.81 9474.09 2057.81 9480.17 2057.81 9485.09 2062.74 9485.09 2068.81Z" stroke="#ED7D31" stroke-width="3.4375" stroke-linejoin="round" stroke-miterlimit="10" fill="#ED7D31"/></g><g clip-path="url(#clip10)"><text fill="#595959" font-family="Calibri,Calibri_MSFontService,sans-serif" font-weight="400" font-size="55" transform="matrix(1 0 0 1 7308.7 2731)">0</text></g><g clip-path="url(#clip11)"><text fill="#595959" font-family="Calibri,Calibri_MSFontService,sans-serif" font-weight="400" font-size="55" transform="matrix(1 0 0 1 7252.96 2579)">100</text></g><g clip-path="url(#clip12)"><text fill="#595959" font-family="Calibri,Calibri_MSFontService,sans-serif" font-weight="400" font-size="55" transform="matrix(1 0 0 1 7252.96 2428)">200</text></g><g clip-path="url(#clip13)"><text fill="#595959" font-family="Calibri,Calibri_MSFontService,sans-serif" font-weight="400" font-size="55" transform="matrix(1 0 0 1 7252.96 2277)">300</text></g><g clip-path="url(#clip14)"><text fill="#595959" font-family="Calibri,Calibri_MSFontService,sans-serif" font-weight="400" font-size="55" transform="matrix(1 0 0 1 7252.96 2126)">400</text></g><g clip-path="url(#clip15)"><text fill="#595959" font-family="Calibri,Calibri_MSFontService,sans-serif" font-weight="400" font-size="55" transform="matrix(1 0 0 1 7252.96 1975)">500</text></g><g clip-path="url(#clip16)"><text fill="#595959" font-family="Calibri,Calibri_MSFontService,sans-serif" font-weight="400" font-size="55" transform="matrix(1 0 0 1 7252.96 1823)">600</text></g><g clip-path="url(#clip17)"><text fill="#595959" font-family="Calibri,Calibri_MSFontService,sans-serif" font-weight="400" font-size="55" transform="matrix(1 0 0 1 7252.96 1672)">700</text></g><g clip-path="url(#clip18)"><text fill="#595959" font-family="Calibri,Calibri_MSFontService,sans-serif" font-weight="400" font-size="55" transform="matrix(1 0 0 1 7252.96 1521)">800</text></g><g clip-path="url(#clip19)"><text fill="#595959" font-family="Calibri,Calibri_MSFontService,sans-serif" font-weight="400" font-size="55" transform="matrix(1 0 0 1 7252.96 1370)">900</text></g><g clip-path="url(#clip20)"><text fill="#595959" font-family="Calibri,Calibri_MSFontService,sans-serif" font-weight="400" font-size="55" transform="matrix(1 0 0 1 7373.66 2802)">8</text></g><g clip-path="url(#clip21)"><text fill="#595959" font-family="Calibri,Calibri_MSFontService,sans-serif" font-weight="400" font-size="55" transform="matrix(1 0 0 1 7511.74 2802)">12</text></g><g clip-path="url(#clip22)"><text fill="#595959" font-family="Calibri,Calibri_MSFontService,sans-serif" font-weight="400" font-size="55" transform="matrix(1 0 0 1 7663.75 2802)">16</text></g><g clip-path="url(#clip23)"><text fill="#595959" font-family="Calibri,Calibri_MSFontService,sans-serif" font-weight="400" font-size="55" transform="matrix(1 0 0 1 7815.76 2802)">20</text></g><g clip-path="url(#clip24)"><text fill="#595959" font-family="Calibri,Calibri_MSFontService,sans-serif" font-weight="400" font-size="55" transform="matrix(1 0 0 1 7967.78 2802)">24</text></g><g clip-path="url(#clip25)"><text fill="#595959" font-family="Calibri,Calibri_MSFontService,sans-serif" font-weight="400" font-size="55" transform="matrix(1 0 0 1 8119.79 2802)">28</text></g><g clip-path="url(#clip26)"><text fill="#595959" font-family="Calibri,Calibri_MSFontService,sans-serif" font-weight="400" font-size="55" transform="matrix(1 0 0 1 8271.8 2802)">32</text></g><g clip-path="url(#clip27)"><text fill="#595959" font-family="Calibri,Calibri_MSFontService,sans-serif" font-weight="400" font-size="55" transform="matrix(1 0 0 1 8423.82 2802)">36</text></g><g clip-path="url(#clip28)"><text fill="#595959" font-family="Calibri,Calibri_MSFontService,sans-serif" font-weight="400" font-size="55" transform="matrix(1 0 0 1 8575.83 2802)">40</text></g><g clip-path="url(#clip29)"><text fill="#595959" font-family="Calibri,Calibri_MSFontService,sans-serif" font-weight="400" font-size="55" transform="matrix(1 0 0 1 8727.84 2802)">44</text></g><g clip-path="url(#clip30)"><text fill="#595959" font-family="Calibri,Calibri_MSFontService,sans-serif" font-weight="400" font-size="55" transform="matrix(1 0 0 1 8879.86 2802)">48</text></g><g clip-path="url(#clip31)"><text fill="#595959" font-family="Calibri,Calibri_MSFontService,sans-serif" font-weight="400" font-size="55" transform="matrix(1 0 0 1 9031.87 2802)">52</text></g><g clip-path="url(#clip32)"><text fill="#595959" font-family="Calibri,Calibri_MSFontService,sans-serif" font-weight="400" font-size="55" transform="matrix(1 0 0 1 9183.88 2802)">56</text></g><g clip-path="url(#clip33)"><text fill="#595959" font-family="Calibri,Calibri_MSFontService,sans-serif" font-weight="400" font-size="55" transform="matrix(1 0 0 1 9335.9 2802)">60</text></g><g clip-path="url(#clip34)"><text fill="#595959" font-family="Calibri,Calibri_MSFontService,sans-serif" font-weight="400" font-size="55" transform="matrix(1 0 0 1 9487.91 2802)">64</text></g><g clip-path="url(#clip35)"><text fill="#595959" font-family="Calibri,Calibri_MSFontService,sans-serif" font-weight="400" font-size="64" transform="matrix(6.12323e-17 -1 1 6.12323e-17 7221.89 2500)">Effective memory bandwidth (GB/s)</text></g><g clip-path="url(#clip36)"><text fill="#595959" font-family="Calibri,Calibri_MSFontService,sans-serif" font-weight="400" font-size="64" transform="matrix(1 0 0 1 8288.37 2892)">nx * ny (MB)</text></g><g clip-path="url(#clip37)"><path d="M7916.5 1245.5 8004.5 1245.5" stroke="#4472C4" stroke-width="6.875" stroke-linecap="round" stroke-linejoin="round" stroke-miterlimit="10" fill="none" fill-rule="evenodd"/></g><g clip-path="url(#clip38)"><path d="M7971 1245C7971 1251.07 7966.08 1256 7960 1256 7953.92 1256 7949 1251.07 7949 1245 7949 1238.92 7953.92 1234 7960 1234 7966.08 1234 7971 1238.92 7971 1245Z" stroke="#4472C4" stroke-width="3.4375" stroke-linejoin="round" stroke-miterlimit="10" fill="#4472C4"/></g><g clip-path="url(#clip39)"><text fill="#595959" font-family="Calibri,Calibri_MSFontService,sans-serif" font-weight="400" font-size="64" transform="matrix(1 0 0 1 8014.23 1264)">RX 6900 XT</text></g><g clip-path="url(#clip40)"><path d="M8374.5 1245.5 8462.5 1245.5" stroke="#ED7D31" stroke-width="6.875" stroke-linecap="round" stroke-linejoin="round" stroke-miterlimit="10" fill="none" fill-rule="evenodd"/></g><g clip-path="url(#clip41)"><path d="M8429 1245C8429 1251.07 8424.08 1256 8418 1256 8411.92 1256 8407 1251.07 8407 1245 8407 1238.92 8411.92 1234 8418 1234 8424.08 1234 8429 1238.92 8429 1245Z" stroke="#ED7D31" stroke-width="3.4375" stroke-linejoin="round" stroke-miterlimit="10" fill="#ED7D31"/></g><g clip-path="url(#clip42)"><text fill="#595959" font-family="Calibri,Calibri_MSFontService,sans-serif" font-weight="400" font-size="64" transform="matrix(1 0 0 1 8471.79 1264)">RX 7900 XTX</text></g><rect x="7104.5" y="1165.5" width="2490" height="1802" stroke="#D9D9D9" stroke-width="3.4375" stroke-linejoin="round" stroke-miterlimit="10" fill="none"/></g></svg>